<svg width="577" height="421" viewBox="0 0 577 421" fill="none" xmlns="http://www.w3.org/2000/svg">
<path d="M95.8553 110.934C85.6745 14.7433 220.043 -2.86826 288.5 0.3498C374.949 23.6076 288.5 83.288 390.308 68.3679C492.115 53.4478 566.716 68.3679 562.327 138.58C557.939 208.792 490.799 225.468 390.308 243.898C289.816 262.329 391.185 309.722 341.598 383.445C292.011 457.168 95.8553 348.778 34.4196 292.169C-14.7289 246.882 7.21238 202.502 24.3266 185.973C52.4115 201.04 106.036 207.125 95.8553 110.934Z" fill="#F2F7FF"/>
<path d="M329.444 41.5171C330.371 41.6811 331.298 41.8761 332.221 42.1065C332.221 42.3281 332.221 42.7712 332.225 42.9928C331.338 42.8022 330.464 42.6161 329.586 42.4344C329.551 42.204 329.48 41.7476 329.444 41.5171Z" fill="#5F719C"/>
<path d="M401.734 41.9824C402.559 41.8273 403.402 41.6678 404.254 41.7476C420.222 43.1213 436.207 44.2823 452.18 45.6384C453.563 45.7802 454.987 45.7447 456.331 46.1258C469.562 58.2192 482.616 70.5119 495.856 82.592C495.759 83.2567 496.082 84.1341 495.439 84.5906C494.348 84.9717 493.168 84.7457 492.055 84.7014C486.692 84.1829 481.317 83.8816 475.963 83.301C475.763 83.465 475.368 83.7929 475.169 83.9525C475.169 83.7619 475.173 83.3808 475.173 83.1903C472.614 82.9731 470.037 82.9155 467.491 82.5654C466.963 81.8032 466.426 81.0499 465.85 80.3276C474.526 80.8416 483.162 81.8741 491.851 82.2419C480.722 71.54 469.199 61.2547 457.946 50.6857C456.779 49.6045 455.697 48.1067 453.958 48.0402C437.786 47.1362 421.663 45.4389 405.505 44.2823C406.64 45.4833 407.944 46.4936 409.208 47.5527C414.628 52.7729 420.333 57.6874 425.739 62.9253C430.929 67.4764 435.87 72.2889 440.838 77.0793C441.712 77.9922 442.869 78.5949 444.165 78.5505C450.809 78.8253 457.413 79.8224 464.067 79.9376L464.08 79.9509C464.772 80.8682 465.486 81.7678 466.227 82.6496C466.147 82.8446 465.992 83.2301 465.916 83.4207C465.939 83.2035 465.987 82.7693 466.014 82.5566C458.305 81.8387 450.578 81.2626 442.865 80.6599C440.9 80.6732 439.702 78.9538 438.363 77.7972C433.311 72.9315 427.979 68.3671 422.927 63.5014C420.656 61.2636 418.221 59.2029 415.893 57.0271C411.306 52.8306 406.738 48.6118 402.196 44.3621C401.442 43.8082 401.841 42.7712 401.734 41.9824Z" fill="#5F719C"/>
<path d="M333.219 42.9219C333.986 43.6708 335.641 44.6147 334.811 45.851C333.96 45.1376 332.979 44.1405 333.219 42.9219Z" fill="#5F719C"/>
<path d="M276.475 46.7329C277.34 46.6974 278.218 46.6709 279.097 46.6576C283.173 46.7816 287.227 47.2868 291.303 47.4907C290.221 48.4612 288.886 49.055 287.635 49.764C287.639 50.1938 287.648 51.0491 287.653 51.479C287.382 51.2973 286.846 50.9339 286.575 50.7522C286.575 50.2293 286.579 49.7108 286.588 49.1923C286.398 49.2721 286.021 49.4316 285.83 49.5114C282.96 48.5897 279.944 48.3149 277.039 47.5926C276.897 47.3799 276.617 46.95 276.475 46.7329Z" fill="#5F719C"/>
<path d="M334.944 47.0121C335.095 46.888 335.392 46.6354 335.543 46.5113C335.725 47.4774 335.809 48.4611 335.876 49.4405C334.448 49.6798 334.896 47.8629 334.944 47.0121Z" fill="#5F719C"/>
<path d="M274.981 46.6443C277.815 48.9265 281.434 49.8704 284.313 52.0772C284.402 53.0964 283.275 53.3269 282.583 53.7346C281.962 53.9783 281.323 54.191 280.667 54.3018C278.649 52.5868 276.977 50.5129 275.003 48.7536L275.145 48.4789C275.189 48.3903 275.282 48.2041 275.326 48.1155C275.238 47.7477 275.065 47.0121 274.981 46.6443Z" fill="#5F719C"/>
<path d="M226.527 47.4464C227.769 48.4656 228.842 49.6665 229.995 50.7832C229.658 50.7655 228.98 50.7345 228.643 50.7168C228.292 51.1732 227.942 51.6296 227.609 52.0994C227.064 50.6769 225.085 48.8866 226.527 47.4464Z" fill="#5F719C"/>
<path d="M323.802 48.6562C325.408 48.3637 324.725 50.5661 324.862 51.541C323.594 51.3106 324.099 49.5646 323.802 48.6562Z" fill="#5F719C"/>
<path d="M363.389 50.3755C364.463 50.3977 365.776 49.8925 366.641 50.7832C365.598 51.027 363.744 51.9354 363.389 50.3755Z" fill="#5F719C"/>
<path d="M367.328 50.3091C368.353 50.2426 369.382 50.3179 370.406 50.4597C370.358 50.668 370.264 51.0934 370.22 51.3062C369.249 51.0447 367.643 51.6075 367.328 50.3091Z" fill="#5F719C"/>
<path d="M333.831 53.4332C334.261 52.445 334.142 50.7035 335.579 50.6769C335.237 51.6695 335.224 53.3579 333.831 53.4332Z" fill="#5F719C"/>
<path d="M359.362 51.3549C360.382 51.058 361.416 50.7921 362.467 50.5971C362.272 51.9088 360.009 52.64 359.362 51.3549Z" fill="#5F719C"/>
<path d="M370.961 51.1643C371.95 50.5749 372.988 51.1821 373.968 51.4435C373.95 51.6739 373.915 52.1392 373.897 52.3697C372.912 51.9797 371.928 51.5986 370.961 51.1643Z" fill="#5F719C"/>
<path d="M355.419 53.092C356.128 52.0107 357.49 51.931 358.634 51.6651C358.337 53.1097 356.599 53.1718 355.419 53.092Z" fill="#5F719C"/>
<path d="M375.13 52.1924C376.141 52.2323 377.073 52.6001 377.893 53.1851C377.862 53.4111 377.8 53.8631 377.769 54.0891C376.98 53.6947 376.203 53.2958 375.414 52.9192C375.343 52.7375 375.201 52.3741 375.13 52.1924Z" fill="#5F719C"/>
<path d="M190.293 52.4982C190.426 53.5263 190.63 54.5588 191.14 55.4761C190.621 56.1364 190.018 56.7524 189.677 57.5323C189.539 58.6003 189.841 59.6594 190 60.7096C189.681 60.6875 189.038 60.6387 188.719 60.6121C188.284 59.9519 187.849 59.2916 187.419 58.6357C187.964 57.4437 188.594 56.2871 189.326 55.1969C189.3 55.0285 189.251 54.6873 189.229 54.5189C189.588 53.8498 189.943 53.1762 190.293 52.4982Z" fill="#5F719C"/>
<path d="M324.645 52.1836C325.785 52.7995 326.1 54.1201 326.348 55.2856C324.92 54.9887 324.76 53.3623 324.645 52.1836Z" fill="#5F719C"/>
<path d="M378.803 53.8852C379.787 54.4524 381.566 54.8867 380.954 56.3757C380.196 55.8927 379.455 55.3963 378.71 54.9089C378.732 54.6519 378.781 54.1422 378.803 53.8852Z" fill="#5F719C"/>
<path d="M326.583 55.7597C327.488 56.2073 328.18 56.9474 328.859 57.6785C329.489 57.3462 330.127 57.0227 330.779 56.7258C330.597 57.0714 330.234 57.7672 330.056 58.1128C330.123 58.2856 330.265 58.6357 330.336 58.8086C330.943 59.0168 331.56 59.2384 332.172 59.46C332.194 59.6904 332.23 60.1601 332.248 60.3906C330.77 60.0848 329.639 59.0567 328.309 58.4319C327.564 57.6697 326.517 56.9651 326.583 55.7597Z" fill="#5F719C"/>
<path d="M381.832 57.1734C381.571 56.6416 382.356 56.7302 382.639 56.5308C382.879 56.8587 383.358 57.5101 383.598 57.8381C383.952 57.7228 384.312 57.6032 384.671 57.4835C384.103 57.8336 383.837 58.3565 383.877 59.0523C383.141 58.4939 382.325 57.9754 381.832 57.1734Z" fill="#5F719C"/>
<path d="M289.613 57.2841C290.74 56.7524 292 58.0818 292.554 59.039C291.374 58.9814 290.154 58.3432 289.613 57.2841Z" fill="#5F719C"/>
<path d="M230.483 57.8292C230.568 59.8322 230.834 61.8219 230.812 63.8293C230.674 63.4615 230.404 62.7259 230.266 62.3581C228.128 64.5827 225.972 66.794 223.591 68.766C223.586 65.6728 223.466 62.5265 224.22 59.5043C224.176 59.8898 224.087 60.6609 224.043 61.0464C225.458 61.1084 226.899 61.3921 228.306 61.1306C229.614 60.5634 230.701 59.3403 230.483 57.8292Z" fill="#5F719C"/>
<path d="M324.406 60.4969C324.676 59.1232 326.379 58.7908 327.568 58.9282C326.827 59.9696 325.585 60.2886 324.406 60.4969Z" fill="#5F719C"/>
<path d="M337.22 60.9977C337.34 59.5264 339.406 59.4555 340.44 59.9873C339.451 60.5634 338.346 60.8647 337.22 60.9977Z" fill="#5F719C"/>
<path d="M384.281 59.7081C385.718 59.4157 386.232 61.1838 386.467 62.2606C385.292 61.8928 384.826 60.6919 384.281 59.7081Z" fill="#5F719C"/>
<path d="M320.462 61.5339C321.105 60.2488 322.738 60.2266 323.962 60.4748C322.928 61.1794 321.735 61.6491 320.462 61.5339Z" fill="#5F719C"/>
<path d="M333.183 59.9253C334.15 60.0493 335.122 60.1911 336.089 60.3462C336.124 60.5412 336.2 60.9401 336.235 61.1395C335.179 60.9356 333.383 61.4231 333.183 59.9253Z" fill="#5F719C"/>
<path d="M297.016 60.5058C297.89 60.714 298.768 60.9179 299.651 61.1262C299.456 62.5531 298.05 61.5383 297.154 61.4807C297.118 61.237 297.052 60.7495 297.016 60.5058Z" fill="#5F719C"/>
<path d="M190.408 60.7539C191.052 60.8204 191.704 60.8824 192.351 60.9755C194.068 61.3256 195.106 62.8899 196.046 64.2282C198.042 66.9136 199.741 69.8073 201.2 72.8118L201.271 73.0024C201.342 73.1442 201.475 73.4278 201.542 73.5696C201.741 75.1162 201.905 76.6672 202.127 78.2093C201.652 78.524 201.182 78.8386 200.725 79.1709C198.911 79.2241 197.093 79.1576 195.279 79.1089C195.066 81.3025 195.115 83.5049 195.097 85.7073C187.361 85.9643 179.621 85.7117 171.886 85.8358C169.593 85.8048 167.348 87.8122 167.499 90.1786C167.57 94.4638 167.233 98.749 167.486 103.03C167.495 154.886 167.446 206.734 167.495 258.586C167.273 260.589 168.892 261.967 170.351 263.026C167.552 265.831 164.731 268.606 161.941 271.415C161.866 269.616 161.888 267.812 162.199 266.035C157.861 265.823 153.514 266.15 149.18 265.893C149.336 260.026 149.278 254.159 149.238 248.292C153.265 247.88 157.324 248.159 161.36 248.132C162.252 244.131 161.901 240.018 161.955 235.959C161.946 233.407 162.008 230.859 161.963 228.306C161.941 212.473 161.972 196.639 161.95 180.81C161.924 179.56 161.861 178.311 161.715 177.074C161.941 177.114 162.398 177.199 162.629 177.238C164.146 178.572 165.374 180.212 166.953 181.488C165.419 179.764 163.911 177.912 161.959 176.653C161.897 175.789 161.826 174.93 161.817 174.07C161.822 173.64 161.835 173.21 161.853 172.785C161.906 171.593 161.915 170.396 161.897 169.204C161.844 166.443 161.848 163.683 161.897 160.926C161.995 158.866 161.941 156.801 161.919 154.74C161.941 153.88 161.955 153.021 161.963 152.161C161.919 130.305 161.986 108.454 161.946 86.598C161.977 84.9983 161.706 83.2213 162.611 81.7988C163.276 80.7618 164.341 79.8622 165.614 79.7825C168.723 79.5875 171.846 79.8755 174.951 79.6584C175.266 79.6318 175.895 79.5875 176.206 79.5609C177.847 79.7958 179.515 79.8224 181.165 79.7116C181.262 79.5033 181.453 79.0823 181.551 78.874C181.901 78.4353 182.3 78.0409 182.704 77.6465C182.198 77.1192 181.693 76.5874 181.183 76.0689C182.123 75.8828 183.072 75.7455 184.026 75.6302C184.589 71.8192 183.014 67.8752 184.279 64.113C184.602 63.3862 184.993 62.6949 185.339 61.9814C185.729 62.4911 186.119 62.9962 186.518 63.5059C187.206 62.8544 187.858 62.1587 188.333 61.33C188.696 61.7643 189.038 62.2119 189.353 62.6816C189.725 65.2252 188.967 67.8398 189.544 70.3613C190.781 73.8089 194.077 75.772 196.339 78.4752C196.906 78.4132 197.474 78.3511 198.046 78.2847C196.254 75.2358 193.456 73.0246 191.123 70.4366C189.681 68.7748 191.003 66.6876 191.371 64.8885C191.815 63.4394 191.034 62.0169 190.408 60.7539ZM189.526 74.6952C189.508 75.6435 189.481 76.5874 189.455 77.5357C189.579 77.4338 189.823 77.2255 189.947 77.1192C190.311 77.097 191.038 77.0483 191.402 77.0261C190.985 76.0955 190.293 75.3466 189.526 74.6952ZM162.425 103.513C163.698 103.216 164.257 101.922 164.957 100.965C163.92 101.603 163.055 102.476 162.425 103.513ZM157.59 253.579C154.645 254.802 153.629 258.918 155.665 261.373C157.009 263.434 159.781 263.669 161.959 263.044C161.959 259.836 161.941 256.627 161.968 253.419C160.526 253.109 158.925 252.719 157.59 253.579Z" fill="#5F719C"/>
<path d="M162 183.807V175.307L167 176.307L167.5 182.807L162 183.807Z" fill="#5F719C"/>
<path d="M162 103.807V95.3065L167 96.3065L167.5 102.807L162 103.807Z" fill="#5F719C"/>
<path d="M312.478 62.7038C313.232 61.8219 315.22 61.1616 315.725 62.5797C314.652 62.7569 313.556 62.8899 312.478 62.7038Z" fill="#5F719C"/>
<path d="M304.738 62.3581C305.515 62.0391 306.406 62.1543 307.156 62.5177C306.38 62.7437 305.532 62.8677 304.756 62.6063L304.738 62.3581Z" fill="#5F719C"/>
<path d="M388.233 65.8013C386.982 65.3493 386.592 63.8338 386.804 62.6417C387.709 63.4527 388.219 64.5827 388.233 65.8013Z" fill="#5F719C"/>
<path d="M230.86 64.237L230.856 64.0554C231.033 66.7895 231.162 69.5282 231.091 72.2668C231.708 72.1161 232.311 71.6685 232.976 71.7439C234.169 71.9699 235.38 72.1073 236.596 72.1161C239.492 72.1117 242.357 72.6435 245.254 72.5903C244.89 71.3761 244.526 70.1619 244.158 68.9432C243.258 69.0496 242.357 69.1515 241.466 69.2977C242.384 69.0762 243.311 68.8856 244.238 68.6906C244.296 68.859 244.411 69.2002 244.469 69.3731C244.85 70.4942 245.143 71.642 245.422 72.7941C241.129 72.4972 236.817 72.5327 232.515 72.4219C227.343 72.5238 222.207 73.2195 217.097 74.0039C214.56 74.4603 212.094 75.2491 209.552 75.679C209.49 76.6894 209.379 77.6997 209.202 78.7012C209.1 78.3511 208.993 78.0055 208.931 77.651L208.918 77.4205C208.887 76.9951 208.891 76.5653 208.847 76.1399C207.813 76.4545 206.771 76.7337 205.724 76.9907C206.953 76.4678 208.199 75.9803 209.441 75.4884C209.588 72.9138 211.624 71.2697 213.105 69.3997C216.285 70.4189 219.248 72.1294 222.588 72.6257C225.374 72.8695 228.159 72.3421 230.927 72.0718C230.94 69.4617 230.936 66.8472 230.86 64.237Z" fill="#5F719C"/>
<path d="M388.383 66.7541C389.089 66.5547 389.417 67.7379 388.685 67.893C388.02 68.0613 387.692 66.9136 388.383 66.7541Z" fill="#5F719C"/>
<path d="M320.245 92.7178C330.629 91.1845 341.096 90.121 351.586 89.7931C352.811 89.9304 354.035 90.0589 355.272 90.152L355.334 90.83C353.928 90.7724 352.527 90.7237 351.13 90.6705C351.276 90.8433 351.569 91.1845 351.715 91.3574C347.08 91.8803 342.4 91.9334 337.761 92.4785C331.884 92.8951 326.064 93.8168 320.21 94.4461C320.218 94.0162 320.236 93.1476 320.245 92.7178Z" fill="#5F719C"/>
<path d="M391.648 91.6941C391.71 91.1757 391.182 90.3514 391.817 90.0634C392.996 89.926 394.194 90.0457 395.383 90.121C403.265 90.8123 411.182 91.3707 418.984 92.7577C418.989 93.1521 418.997 93.9453 419.006 94.3397C415.267 94.1314 411.586 93.4135 407.864 93.0812C406.662 92.8862 405.265 93.0723 404.338 92.1373C404.409 92.288 404.547 92.5937 404.613 92.7444C400.293 92.3589 395.977 91.9733 391.648 91.6941Z" fill="#5F719C"/>
<path d="M454.566 103.092C455.369 103.251 456.18 103.384 457.001 103.522C456.189 105.334 455.333 107.133 454.624 108.986C454.592 107.022 454.566 105.059 454.566 103.092Z" fill="#5F719C"/>
<path d="M329.245 103.624C330.269 103.393 331.321 103.402 332.367 103.526C332.283 104.018 332.199 104.51 332.114 105.006C328.517 105.427 324.929 105.981 321.323 106.336C320.409 106.628 319.943 105.578 320.445 104.887C322.889 104.098 325.497 104.173 328.003 103.69C328.038 103.934 328.109 104.43 328.145 104.674C328.566 104.386 328.899 104.005 329.245 103.624Z" fill="#5F719C"/>
<path d="M405.012 103.331C406.068 102.994 407.172 103.256 408.25 103.362C411.825 103.765 415.396 104.222 418.949 104.78C418.971 105.126 419.02 105.822 419.042 106.167C418.252 106.3 417.454 106.402 416.669 106.247C413.143 105.684 409.585 105.378 406.05 104.944C405.199 104.949 404.702 104.093 405.012 103.331Z" fill="#5F719C"/>
<path d="M227.299 104.071C234.542 103.792 241.772 104.528 248.98 105.135C249.53 105.206 250.013 105.502 250.519 105.72C250.505 105.618 250.47 105.418 250.452 105.316C261.195 106.513 271.92 108.192 282.747 108.352C283.807 108.409 284.867 108.485 285.932 108.587C285.981 109.039 286.034 109.5 286.087 109.956C285.417 110.124 284.743 110.311 284.051 110.293C265.777 109.974 247.791 105.777 229.499 105.822C228.802 105.768 228.044 105.91 227.405 105.587C227.321 105.086 227.285 104.581 227.299 104.071Z" fill="#5F719C"/>
<path d="M458.034 103.885C459.285 104.045 460.541 104.2 461.809 104.235C461.8 125.608 461.822 146.981 461.796 168.353C461.769 170.179 461.778 172.009 461.805 173.839C461.818 177.123 461.787 180.407 461.862 183.691C461.862 183.912 461.858 184.36 461.858 184.581C461.853 184.767 461.853 185.14 461.849 185.326C461.782 187.395 461.791 189.469 461.805 191.543C461.805 192.487 461.814 193.431 461.822 194.375C461.871 197.18 461.716 199.985 461.885 202.786C462.284 206.167 461.649 209.561 462.022 212.942C462.191 214.702 461.845 216.448 461.822 218.207C461.84 223.689 461.871 229.17 461.845 234.652C461.867 237.435 462.106 240.218 461.871 242.996C461.72 253.809 461.862 264.622 461.805 275.434C461.822 277.495 459.96 279.303 457.941 279.436C454.322 279.68 450.658 279.201 447.061 279.662C446.919 279.378 446.79 279.095 446.671 278.816C446.076 275.745 445.198 272.731 444.799 269.625C444.719 268.738 443.987 268.136 443.561 267.413C442.719 266.022 441.938 264.591 441.197 263.146C443.371 263.186 445.548 263.159 447.722 263.186C449.62 263.217 451.82 263.31 453.244 261.817C454.974 260.164 454.53 257.585 454.575 255.435C454.553 229.011 454.57 202.591 454.566 176.17C454.624 163.452 454.437 150.734 454.677 138.025C457.085 136.274 458.882 133.855 461.122 131.914C458.647 133.607 457.014 136.208 454.579 137.945C454.61 130.243 454.477 122.532 454.632 114.831C454.752 113.359 454.464 111.791 455.187 110.43C456.203 108.277 457.165 106.101 458.034 103.885ZM455.049 142.757C456.886 144.827 458.682 147.038 461.024 148.558C459.254 146.422 457.369 144.313 455.049 142.757Z" fill="#5F719C"/>
<path d="M209.579 105.844C213.158 105.263 216.742 104.213 220.401 104.612C220.277 105.166 220.073 105.68 219.798 106.154C218.153 106.446 216.476 106.477 214.835 106.761C212.515 107.027 210.257 107.811 207.902 107.731C208.035 106.814 208.514 105.835 209.579 105.844Z" fill="#5F719C"/>
<path d="M356.789 114.862C377.086 114.263 397.476 114.972 417.574 117.999C418.487 117.924 418.487 118.912 418.776 119.519C417.999 119.643 417.21 119.75 416.434 119.625C397.862 117.06 379.078 116.076 360.338 116.537C358.612 116.572 356.878 116.807 355.166 116.541C355.175 116.182 355.197 115.46 355.21 115.101C355.725 114.981 356.253 114.902 356.789 114.862Z" fill="#5F719C"/>
<path d="M209.526 119.289C217.576 117.676 225.839 117.051 234.036 117.565C234.018 118.123 234.4 119.182 233.491 119.204C229.796 119.324 226.083 119.089 222.393 119.43C217.731 119.67 213.118 120.428 208.55 121.332C208.386 121.035 208.053 120.436 207.884 120.139C208.417 119.834 208.9 119.399 209.526 119.289Z" fill="#5F719C"/>
<path d="M242.921 118.247C246.163 118.154 249.365 118.708 252.577 119.04C265.976 120.472 279.425 122.572 292.936 121.62C297.486 121.46 301.94 120.467 306.437 119.874C306.331 120.507 306.176 121.137 305.954 121.739C293.348 124.34 280.348 124.057 267.622 122.563C267.134 122.555 266.797 122.32 266.615 121.863C266.642 122.005 266.704 122.284 266.735 122.426C259.106 121.753 251.526 120.614 243.892 119.984C243.005 119.976 242.996 118.872 242.921 118.247Z" fill="#5F719C"/>
<path d="M322.152 131.032C334.514 129.304 346.978 128.315 359.459 127.979C368.215 127.482 376.993 127.81 385.753 128.2C385.811 128.736 385.873 129.273 385.931 129.813C374.749 129.818 363.545 129.414 352.367 130.061C342.445 130.487 332.545 131.426 322.707 132.791C321.922 132.88 321.137 132.898 320.36 132.915C320.307 132.49 320.258 132.069 320.21 131.648C320.839 131.391 321.465 131.116 322.152 131.032Z" fill="#5F719C"/>
<path d="M392.3 130.274C391.244 130.349 391.608 129.184 391.599 128.533C400.683 128.954 409.727 129.973 418.736 131.218C418.887 131.776 419.277 132.41 418.736 132.889C416.545 132.911 414.389 132.432 412.22 132.197C405.607 131.302 398.94 130.85 392.3 130.274Z" fill="#5F719C"/>
<path d="M208.576 132.632C217.611 130.646 226.922 130.132 236.148 130.708C248.673 131.338 261.062 133.518 273.566 134.395C273.49 134.971 274.045 136.345 272.976 136.172C253.93 134.807 234.83 130.46 215.704 133.243C213.096 133.425 210.577 134.537 207.947 134.258C208.151 133.713 208.363 133.172 208.576 132.632Z" fill="#5F719C"/>
<path d="M297.393 134.373C300.596 134.156 303.696 133.199 306.903 132.977C306.894 133.358 306.876 134.116 306.867 134.497C304.002 135.353 301.026 135.796 298.054 136.088C297.309 135.215 296.307 135.454 295.774 136.385C290.327 136.864 284.814 136.983 279.367 136.527C279.323 136.212 279.239 135.587 279.194 135.273C279.904 135.06 280.631 134.843 281.39 134.887C286.726 135.096 292.084 134.967 297.393 134.373Z" fill="#5F719C"/>
<path d="M227.245 142.855C229.614 142.279 232.102 142.66 234.511 142.788C232.901 142.873 231.295 142.983 229.694 143.134C233.167 143.586 236.653 142.78 240.131 143.178C241.781 143.351 243.444 143.285 245.098 143.338C258.574 144.814 272.013 146.883 285.595 147.109C285.737 147.406 286.021 148.009 286.167 148.306C285.812 148.518 285.111 148.939 284.756 149.148C284.703 149.001 284.592 148.704 284.535 148.558C282.224 149.156 279.789 148.696 277.438 148.607C261.723 147.707 246.198 144.499 230.435 144.437C229.206 144.348 226.7 144.92 227.245 142.855Z" fill="#5F719C"/>
<path d="M292.834 146.967C297.544 146.449 302.232 145.806 306.89 144.92C306.881 145.345 306.863 146.187 306.854 146.608C302.263 147.636 297.548 148.682 292.82 148.39C292.825 148.035 292.829 147.326 292.834 146.967Z" fill="#5F719C"/>
<path d="M355.255 153.685C357.082 153.326 358.945 153.388 360.799 153.344C378.359 152.936 395.959 153.716 413.382 155.994C415.019 156.238 416.709 156.278 418.297 156.787C418.722 157.279 418.727 157.762 418.297 158.241C416.713 158.454 415.121 158.01 413.551 157.846C395.622 155.538 377.516 154.66 359.446 155.179C357.934 155.214 356.355 155.653 354.931 154.939C355.011 154.625 355.175 153.996 355.255 153.685ZM361.952 153.734C364.818 154.031 367.705 153.894 370.579 153.925C372.553 153.876 374.549 154.093 376.501 153.703C371.657 153.508 366.796 153.521 361.952 153.734Z" fill="#5F719C"/>
<path d="M321.292 156.628C329.542 155.507 337.823 154.474 346.144 154.097C346.082 154.682 346.024 155.272 345.958 155.861C337.708 156.34 329.515 157.47 321.31 158.321C319.73 158.799 320.081 156.606 321.292 156.628Z" fill="#5F719C"/>
<path d="M208.452 158.17C216.516 156.273 224.846 155.781 233.105 156.074C233.987 156.047 234.466 156.739 234.023 157.545C233.553 158.015 232.799 157.78 232.213 157.864C226.128 157.683 220.024 158.01 214.01 158.932C211.992 159.18 210.022 159.725 207.995 159.872C208.142 159.3 208.297 158.733 208.452 158.17Z" fill="#5F719C"/>
<path d="M272.798 159.845C283.55 160.86 294.452 160.736 305.089 158.702C304.827 159.446 305.763 159.841 306.353 159.588C305.945 160.297 305.076 160.355 304.375 160.563C294.368 162.663 284.051 162.61 273.898 161.799C273.149 161.72 272.412 161.587 271.689 161.409C272.049 160.882 272.43 160.368 272.798 159.845Z" fill="#5F719C"/>
<path d="M323.523 169.439C336.772 167.68 350.118 166.674 363.482 166.488C370.57 166.045 377.658 166.638 384.751 166.709C385.753 166.559 386.059 167.609 385.993 168.398C376.722 168.371 367.439 168.132 358.164 168.393C347.94 168.792 337.717 169.444 327.564 170.764C325.133 170.99 322.738 171.571 320.285 171.495C320.263 171.048 320.241 170.605 320.223 170.161C321.296 169.829 322.401 169.572 323.523 169.439Z" fill="#5F719C"/>
<path d="M391.555 168.814C391.564 168.247 391.586 167.684 391.608 167.126C400.772 167.622 409.936 168.486 418.997 169.966C418.953 170.516 418.913 171.061 418.882 171.615C412.295 170.901 405.74 169.896 399.126 169.435C396.607 169.169 394.07 169.129 391.555 168.814Z" fill="#5F719C"/>
<path d="M391.728 179.108C394.708 175.067 399.605 172.342 404.702 172.625C411.821 172.43 418.43 178.063 419.68 185.007C420.47 188.481 419.68 192.101 418.186 195.274C418.319 195.607 418.585 196.271 418.718 196.604C418.106 196.781 417.498 196.958 416.895 197.14C415.427 199.099 413.511 200.681 411.368 201.855C411.559 202.666 411.745 203.472 411.932 204.288C411.129 204.47 410.326 204.651 409.532 204.842C410.308 205.329 411.089 205.821 411.878 206.309C412.331 207.789 412.721 209.291 413.058 210.811C411.413 211.352 409.754 211.843 408.09 212.318C407.793 211.484 407.518 210.642 407.319 209.787C407.172 208.865 406.689 208.077 406.259 207.275C406.724 207.204 407.199 207.137 407.678 207.071L407.492 206.233C407.288 205.249 407.057 204.279 406.8 203.313C400.138 204.217 392.934 200.667 390.331 194.344C379.477 193.559 368.574 193.471 357.703 193.914C356.86 193.914 356.026 193.861 355.197 193.799C355.148 193.48 355.059 192.841 355.011 192.527C355.592 192.301 356.182 192.053 356.82 192.053C367.718 191.689 378.63 191.769 389.519 192.389C388.556 188.578 388.84 184.448 390.659 180.93C374.505 179.804 358.266 180.079 342.125 181.355C341.221 181.377 340.271 181.581 339.402 181.24C338.83 180.42 339.726 179.596 340.529 179.636C357.552 178.2 374.678 178.036 391.728 179.108ZM394.859 179.365C394.336 180.03 393.808 180.682 393.267 181.329C391.209 184.705 391.031 188.942 392.287 192.633L392.717 192.651C392.85 193.249 392.988 193.852 393.129 194.454C395.48 198.456 400.04 201.142 404.733 200.84C408.317 200.916 411.763 199.196 414.096 196.528L414.198 196.542C414.544 195.992 414.903 195.443 415.276 194.906C417.631 191.618 417.955 187.196 416.638 183.429C416.261 182.72 415.906 182.002 415.582 181.271C415.116 180.491 414.504 179.813 413.808 179.241C414.141 178.918 414.491 178.608 414.846 178.298C414.3 178.368 413.755 178.426 413.218 178.484C410.903 176.405 407.851 175.142 404.733 175.08C401.047 175.027 397.29 176.565 394.859 179.365Z" fill="#5F719C"/>
<path d="M279.323 173.613C281.199 173.463 283.08 173.516 284.965 173.574C287.196 173.653 289.445 173.317 291.671 173.684C287.693 174.602 283.568 174.026 279.527 174.026C279.687 174.185 280.015 174.5 280.175 174.659C283.248 174.491 286.327 174.602 289.405 174.54C290.602 174.509 291.804 174.606 292.971 174.899L293.57 175.12C288.842 175.532 284.078 175.488 279.341 175.231C279.332 174.69 279.323 174.15 279.323 173.613Z" fill="#5F719C"/>
<path d="M326.291 181.382C328.216 180.903 330.207 180.916 332.177 180.779C332.287 182.197 330.793 182.277 329.759 182.401C328.513 182.534 326.938 182.764 326.291 181.382Z" fill="#5F719C"/>
<path d="M227.272 181.267C233.287 181.125 239.368 181.244 245.316 182.193C242.916 182.831 240.397 182.33 238.01 182.919L237.589 183.021C237.336 183.061 236.835 183.146 236.582 183.185C233.513 182.942 230.435 183.03 227.361 182.906C227.339 182.494 227.294 181.679 227.272 181.267Z" fill="#5F719C"/>
<path d="M321.097 181.776C322.795 181.767 324.485 181.572 326.162 181.302C326.441 181.838 326.73 182.37 327.018 182.911C324.778 182.849 322.516 183.837 320.316 183.336C320.076 182.583 320.471 182.095 321.097 181.776Z" fill="#5F719C"/>
<path d="M210.896 182.813C213.948 182.281 217.004 181.608 220.118 181.665C220.122 182.055 220.135 182.84 220.144 183.23C216.587 183.748 213.012 184.156 209.503 184.94C208.763 185.233 208.119 184.794 207.902 184.076C208.594 183.11 209.84 183.066 210.896 182.813Z" fill="#5F719C"/>
<path d="M294.262 185.335C298.36 185.1 302.396 184.32 306.424 183.54C307.116 183.788 306.81 184.564 306.89 185.117C302.805 186.372 298.511 186.81 294.271 187.147C293.747 187.12 292.479 187.249 292.754 186.349C292.439 185.437 293.712 185.454 294.262 185.335Z" fill="#5F719C"/>
<path d="M327.541 194.401C333.281 193.754 339.029 193.138 344.796 192.717C345.439 192.545 345.958 192.93 346.454 193.293C346.295 193.586 345.975 194.175 345.82 194.468C337.428 195.124 329.027 195.877 320.706 197.175C320.529 196.621 320.36 196.072 320.196 195.522C322.591 194.862 325.093 194.791 327.541 194.401Z" fill="#5F719C"/>
<path d="M218.201 195.124C223.138 194.574 228.119 194.463 233.078 194.681C234.054 194.663 234.378 195.359 234.116 196.24C230.683 196.71 227.188 196.107 223.75 196.613C218.605 196.661 213.535 197.574 208.488 198.474C207.654 197.902 208.199 196.692 209.091 196.595C212.085 195.89 215.15 195.505 218.201 195.124Z" fill="#5F719C"/>
<path d="M242.987 195.425C249.161 195.567 255.282 196.617 261.426 197.255C272.359 198.531 283.404 199.723 294.421 198.762C298.458 198.5 302.423 197.636 306.424 197.073C306.619 198 306.264 198.89 305.249 198.997C294.151 201.496 282.645 201.115 271.383 200.202C261.958 199.263 252.572 197.96 243.142 197.065C243.102 196.657 243.027 195.837 242.987 195.425Z" fill="#5F719C"/>
<path d="M358.47 205.272C362.196 204.966 365.94 205.214 369.674 205.023C372.353 204.82 375.015 205.343 377.698 205.139C380.475 204.926 383.225 205.449 385.993 205.582C385.935 205.896 385.82 206.53 385.762 206.845C382.928 207.27 380.058 206.814 377.21 206.867C369.812 206.88 362.405 206.667 355.015 207.111C344.17 207.572 333.343 208.52 322.591 210.022C321.78 210.12 320.968 210.089 320.165 210.049C320.334 209.486 320.511 208.928 320.697 208.369C330.775 207.142 340.87 205.892 351.027 205.533C352.859 205.449 354.7 205.05 356.536 205.342C358.994 205.888 361.535 205.892 364.028 205.604C362.174 205.453 360.32 205.36 358.47 205.272Z" fill="#5F719C"/>
<path d="M220.002 208.201C234.728 206.747 249.441 209.189 264.069 210.674C267.023 211.041 269.995 211.25 272.949 211.626C274.014 211.595 273.517 212.809 273.597 213.452C255.744 212.087 237.917 208.427 219.958 209.92C219.971 209.49 219.989 208.631 220.002 208.201Z" fill="#5F719C"/>
<path d="M211.14 209.517C212.688 208.741 214.427 208.79 216.108 208.688C215.922 209.122 215.735 209.566 215.553 210.009C215.682 210.035 215.93 210.093 216.055 210.12C216.232 210.168 216.587 210.266 216.764 210.315C213.948 210.35 211.282 211.236 208.545 211.764C208.146 211.099 207.813 210.412 208.798 210.093C208.798 210.39 208.794 210.988 208.794 211.285C210.173 210.917 211.464 210.292 212.604 209.433C212.24 209.45 211.504 209.495 211.14 209.517Z" fill="#5F719C"/>
<path d="M302.215 210.873C303.856 210.718 305.466 209.933 307.129 210.341C306.876 211.001 306.765 211.901 305.901 212.016C297.415 213.908 288.655 214.307 279.988 213.904C279.119 213.767 279.376 212.801 279.265 212.18C281.306 212.038 283.35 212.18 285.4 212.211C291.024 212.202 296.666 211.852 302.215 210.873Z" fill="#5F719C"/>
<path d="M340.369 218.265C359.424 216.722 378.603 216.691 397.663 218.14C397.827 218.384 398.155 218.872 398.319 219.12C398.155 219.333 397.831 219.762 397.671 219.979C390.131 219.359 382.564 219.111 375.006 218.818C363.305 218.672 351.595 219.204 339.93 220.104C338.87 219.683 339.216 218.154 340.369 218.265Z" fill="#5F719C"/>
<path d="M404.857 219.523C405.793 218.265 407.7 219.279 409.004 219.306C409.63 219.421 410.259 219.541 410.898 219.66C410.956 219.971 411.076 220.587 411.133 220.892C409.984 220.915 408.84 220.946 407.7 220.919C406.671 220.755 404.924 220.981 404.857 219.523Z" fill="#5F719C"/>
<path d="M323.989 220.002C326.725 219.731 329.444 219.169 332.212 219.222C332.252 219.559 332.327 220.237 332.363 220.573C330.216 221.278 327.932 221.278 325.714 221.588C323.842 221.783 321.953 222.386 320.072 221.916C320.325 219.904 322.516 220.285 323.989 220.002Z" fill="#5F719C"/>
<path d="M227.117 221.42C227.37 220.857 227.179 219.603 228.168 219.789C247.196 219.51 265.897 224.132 284.903 224.243C285.91 224.056 286.069 225.182 286.083 225.922C279.917 226.25 273.77 225.563 267.64 225.022C256.994 223.915 246.402 222.222 235.7 221.765C232.848 221.486 229.969 221.708 227.117 221.42ZM278.125 224.619C280.17 224.938 282.277 224.974 284.326 224.624C282.264 224.402 280.183 224.424 278.125 224.619Z" fill="#5F719C"/>
<path d="M214.387 220.724C215.46 220.675 216.529 220.578 217.598 220.463C217.926 220.44 218.578 220.392 218.907 220.369C218.765 221.562 217.66 221.974 216.653 222.213C215.82 222.417 214.963 222.523 214.112 222.612C214.445 222.253 214.777 221.894 215.105 221.535C214.981 221.393 214.733 221.114 214.609 220.972L214.387 220.724Z" fill="#5F719C"/>
<path d="M418.878 221.708C417.698 222.302 417.809 220.343 418.931 220.946C418.918 221.136 418.891 221.517 418.878 221.708Z" fill="#5F719C"/>
<path d="M418.833 235.091C419.947 234.927 421.069 235.095 422.169 235.294L421.752 235.972C421.211 236.34 420.168 236.429 420.381 237.311C420.608 239.092 421.535 240.75 421.348 242.602C421.042 242.784 420.421 243.156 420.115 243.338C417.942 242.535 417.782 240.085 417.01 238.233C417.037 237.993 417.099 237.515 417.13 237.28C418.425 236.792 419.734 236.296 420.865 235.467C420.186 235.321 419.512 235.197 418.833 235.091Z" fill="#5F719C"/>
<path d="M110.29 247.543C112.663 247.561 115.045 247.432 117.409 247.689C115.049 247.835 112.68 247.733 110.321 247.787L110.29 247.543Z" fill="#5F719C"/>
<path d="M128.338 249.178C128.972 248.416 130.028 248.225 130.964 248.172C134.193 248.013 137.426 248.163 140.655 248.044C141.032 253.951 140.593 259.884 140.912 265.8V266.137C139.657 266.018 138.402 265.929 137.142 265.893C134.982 265.84 132.818 265.862 130.653 265.902C129.988 265.902 129.322 265.898 128.662 265.885C128.214 265.114 127.677 264.329 127.739 263.394C127.677 259.57 127.748 255.746 127.712 251.921C127.766 250.991 127.695 249.931 128.338 249.178Z" fill="#5F719C"/>
<path d="M143.254 248.429C144.474 248.106 145.738 248.141 146.98 248.31C147.078 254.168 146.971 260.026 147.016 265.885C145.756 265.876 144.496 265.862 143.241 265.836C143.285 260.035 143.272 254.23 143.254 248.429Z" fill="#5F719C"/>
<path d="M476.717 260.155C477.347 259.601 478.052 259.144 478.824 258.794C479.764 259.211 480.931 259.911 480.766 261.125C480.82 262.543 479.125 263.523 477.892 262.862C476.743 262.486 476.774 261.134 476.717 260.155ZM477.604 260.217C477.608 260.842 477.356 261.617 478.03 262.003C478.819 262.858 479.72 261.786 480.265 261.192C479.884 260.58 479.427 260.017 478.85 259.592C478.54 259.747 477.914 260.057 477.604 260.217Z" fill="#5F719C"/>
<path d="M433.04 262.317C433.772 264.427 434.961 266.319 436.234 268.145C434.877 268.096 433.519 268.065 432.171 268.136C432.091 268.269 431.927 268.53 431.843 268.663C431.603 266.758 430.925 264.958 430.432 263.115C431.302 263.164 432.171 263.204 433.049 263.257C433.049 263.022 433.04 262.552 433.04 262.317Z" fill="#5F719C"/>
<path d="M170.515 263.115C198.304 263.27 226.101 263.119 253.894 263.19C278.511 263.119 303.133 263.27 327.75 263.115C327.661 263.39 327.479 263.944 327.391 264.223C326.703 264.919 326.033 265.632 325.404 266.381C326.273 265.557 327.125 264.715 328.003 263.899L327.621 263.966C327.941 263.695 328.264 263.434 328.593 263.177C355.445 263.19 382.294 263.15 409.142 263.199C409.177 263.647 409.213 264.099 409.257 264.555L410.224 264.427C410.255 264.91 410.273 265.402 410.304 265.893L410.53 264.817C411.537 265.8 412.553 266.798 413.608 267.737C412.761 266.798 411.87 265.902 411 264.985C410.925 264.817 410.778 264.475 410.707 264.307C410.166 264.001 409.652 263.669 409.151 263.319C413.932 263.009 418.731 263.239 423.522 263.195C423.641 264.861 423.934 266.505 424.223 268.154C422.408 268.083 420.599 268.1 418.789 268.087C418.164 268.991 417.955 270.055 418.252 271.123C420.639 271.996 423.233 271.495 425.717 271.659C426.369 274.282 426.995 276.914 427.877 279.476C397.614 279.502 367.35 279.454 337.087 279.498C329.036 279.502 320.981 279.587 312.931 279.454C315.091 276.883 317.641 274.672 319.961 272.253C321.789 270.307 323.931 268.637 325.426 266.403C323.651 267.476 322.334 269.102 320.87 270.533C318.085 273.454 314.989 276.09 312.438 279.228L312.146 279.467C303.74 279.595 295.326 279.494 286.921 279.498C265.347 279.507 243.772 279.392 222.202 279.556C204.509 279.529 186.816 279.556 169.118 279.533C167.135 279.396 164.682 279.906 163.205 278.226C161.555 276.551 162.057 273.985 161.777 271.863C164.647 268.907 167.636 266.062 170.515 263.115ZM250.048 264.568C252.413 266.004 254.293 268.069 256.161 270.072C257.859 271.45 259.15 273.236 260.831 274.632C262.184 275.833 263.129 277.495 264.841 278.262C263.493 276.489 261.82 275.018 260.259 273.44C257.052 270.214 253.823 267.006 250.585 263.806C250.403 264.059 250.226 264.311 250.048 264.568ZM398.754 268.512C398.142 269.412 398.709 270.511 398.798 271.49C399.783 272 400.869 272.838 402.023 272.244C402.901 272.062 403.234 271.162 403.708 270.52C403.908 268.477 402.174 266.78 400.133 267.139C399.659 267.582 399.157 268.003 398.754 268.512ZM406.334 268.628C405.491 269.128 405.935 270.205 405.824 271.003C406.538 271.22 407.234 271.712 408.024 271.53C410.747 271.716 413.839 272.332 416.243 270.71C418.465 272.638 420.213 275.084 422.666 276.759C421.583 275.523 420.257 274.539 419.179 273.307C417.884 271.801 415.995 270.697 415.502 268.641C415.338 268.526 415.014 268.291 414.85 268.176C412.797 268.087 410.747 268.154 408.698 268.136C407.895 268.193 406.964 268.007 406.334 268.628ZM423.065 277.251C422.847 277.934 423.681 278.457 424.183 278.78C424.795 279.13 424.613 278.235 424.342 278.031C424.045 277.668 423.602 277.007 423.065 277.251Z" fill="#5F719C"/>
<path d="M431.532 271.566C434.056 271.548 436.58 271.566 439.108 271.548C440.878 274.207 442.674 276.848 444.502 279.467L444.338 279.516C440 279.463 435.662 279.467 431.324 279.507C431.621 276.87 431.71 274.211 431.532 271.566Z" fill="#5F719C"/>
<path d="M133.204 298.252C148.613 298.123 164.022 298.176 179.431 298.221C164.022 298.3 148.613 298.247 133.204 298.252Z" fill="#5F719C"/>
<path d="M151.913 302.666C161.223 302.572 170.533 302.608 179.847 302.643C170.537 302.723 161.223 302.683 151.913 302.666Z" fill="#5F719C"/>
<path d="M159.834 307.106C171.371 306.973 182.908 307.075 194.445 307.053C200.211 307.15 205.986 306.804 211.734 307.327C205.538 306.973 199.324 307.181 193.119 307.119C182.025 307.106 170.928 307.132 159.834 307.106Z" fill="#5F719C"/>
<path d="M304.219 319.465C306.247 317.134 309.569 317.227 312.376 316.766C312.669 317.48 312.966 318.198 313.264 318.92C313.72 319.124 314.177 319.328 314.639 319.54C315.082 319.279 315.53 319.026 315.982 318.778C316.266 318.144 316.559 317.52 316.847 316.895C318.821 317.249 320.893 317.413 322.693 318.366C324.512 319.514 325.639 321.428 326.672 323.254C328.526 326.569 330.07 330.207 330.127 334.062C329.564 336.185 327.462 337.217 325.647 338.095C325.319 337.612 325.004 337.133 324.698 336.659C324.525 336.052 324.286 335.445 324.357 334.815C324.525 331.997 325.027 329.205 325.084 326.382L324.516 326.068C320.972 325.496 317.353 325.979 313.782 325.797C310.159 325.922 306.499 325.527 302.907 326.125C303.044 329.626 303.638 333.087 303.878 336.579C303.377 336.978 302.88 337.381 302.388 337.785C301.03 336.721 299.748 335.551 298.697 334.182C297.509 332.064 298.795 329.755 299.607 327.761C300.955 324.907 302.135 321.885 304.219 319.465Z" fill="#5F719C"/>
<path d="M115.448 332.05C116.53 330.991 118.167 331.408 119.524 331.332C124.452 331.487 129.407 331.115 134.321 331.536C134.752 331.913 135.279 332.143 135.869 332.099C139.458 332.157 143.042 332.09 146.63 332.139C146.559 337.833 146.59 343.532 146.608 349.231C136.353 349.315 126.098 349.209 115.843 349.289C115.235 348.535 114.455 347.769 114.503 346.723C114.415 343.036 114.512 339.349 114.455 335.662C114.486 334.426 114.361 332.91 115.448 332.05Z" fill="#5F719C"/>
<path d="M148.932 332.13C150.169 332.112 151.407 332.112 152.649 332.13C152.658 337.811 152.56 343.497 152.715 349.178C151.442 349.235 150.165 349.288 148.892 349.253C148.919 343.545 148.892 337.838 148.932 332.13Z" fill="#5F719C"/>
<path d="M154.964 332.139C163.888 332.099 172.808 332.121 181.733 332.13C180.38 334.036 177.993 335.259 177.506 337.714C177.022 340.346 177.013 343.43 178.81 345.61C179.635 346.603 180.526 347.627 181.702 348.216C183.387 348.761 185.192 348.593 186.935 348.615C195.665 348.597 204.394 348.606 213.123 348.597C215.966 348.637 218.822 348.491 221.666 348.735C211.721 348.93 201.772 348.748 191.832 348.828C188.869 348.899 185.858 348.509 182.948 349.222C180.012 349.785 177.026 349.32 174.068 349.466C172.001 349.577 169.934 349.226 167.872 349.444C163.631 349.767 159.391 349.049 155.15 349.532L154.915 349.47C155.048 343.696 154.955 337.917 154.964 332.139ZM164.82 336.185C162.961 336.504 161.245 337.807 160.562 339.588C159.87 341.777 160.544 344.498 162.602 345.721C163.942 346.705 165.667 346.607 167.242 346.452C168.807 345.531 170.338 344.214 170.586 342.3C171.322 338.981 168.111 335.773 164.82 336.185Z" fill="#5F719C"/>
<path d="M206.634 338.591C208.599 338.551 210.563 338.551 212.533 338.591C212.528 339.287 212.533 339.978 212.524 340.683C212.52 340.816 212.515 341.077 212.515 341.206C212.497 342.203 212.511 343.204 212.502 344.21C211.486 343.665 210.621 342.814 209.517 342.46C208.51 342.925 207.636 343.625 206.687 344.197C206.656 342.327 206.66 340.461 206.634 338.591Z" fill="#5F719C"/>
<path d="M454.5 137.807L461 131.307V149.807H454.5V137.807Z" fill="#5F719C"/>
<path d="M325.869 43.1922C326.659 42.6383 327.453 42.0356 328.437 41.8938C328.043 42.8155 327.031 43.2011 326.331 43.8392C326.215 43.6797 325.985 43.3562 325.869 43.1922Z" fill="#3A3C50"/>
<path d="M405.505 44.2823C421.663 45.439 437.786 47.1362 453.958 48.0402C455.697 48.1067 456.779 49.6045 457.946 50.6858C469.199 61.2547 480.722 71.54 491.851 82.2419C483.162 81.8741 474.526 80.8416 465.85 80.3276C461.379 74.8193 457.245 69.0452 452.88 63.4527C453.16 63.2488 453.719 62.8323 453.998 62.624C452.623 60.5545 449.523 58.6845 447.194 60.3285C448.534 62.2739 451.221 62.5487 452.437 64.5871C456.154 69.8251 460.341 74.7085 464.067 79.9376C457.413 79.8224 450.809 78.8253 444.165 78.5506C442.869 78.5949 441.712 77.9922 440.838 77.0793C435.87 72.289 430.929 67.4764 425.739 62.9254C420.333 57.6874 414.628 52.773 409.208 47.5527C407.944 46.4936 406.64 45.4833 405.505 44.2823Z" fill="#3A3C50"/>
<path d="M324.831 44.9249C325.026 44.8717 325.421 44.7698 325.621 44.721C325.368 45.6871 325.075 46.6443 324.769 47.597C323.745 46.9279 324.72 45.8067 324.831 44.9249Z" fill="#3A3C50"/>
<path d="M226.518 47.4375C229.738 47.0476 232.848 45.8511 236.13 45.9042C236.125 46.6044 236.343 47.5306 235.611 47.9649C234.005 49.0727 231.907 49.343 230.537 50.8231C230.399 50.8143 230.129 50.7921 229.995 50.7832C228.842 49.6665 227.769 48.4656 226.527 47.4464L226.518 47.4375Z" fill="#3A3C50"/>
<path d="M272.576 46.1568C274.679 46.2233 276.861 46.8393 278.91 46.2898C278.955 46.3828 279.048 46.5645 279.097 46.6576C278.218 46.6709 277.34 46.6975 276.475 46.7329C276.617 46.9501 276.897 47.3799 277.039 47.5926C279.944 48.3149 282.96 48.5897 285.83 49.5114C286.021 49.4317 286.398 49.2721 286.588 49.1924C286.579 49.7108 286.575 50.2293 286.575 50.7522C286.846 50.9339 287.382 51.2973 287.653 51.479L287.697 51.5056C287.897 53.1851 288.207 54.8424 288.438 56.5175C286.433 55.7021 284.508 54.7139 282.583 53.7346C283.275 53.3269 284.402 53.0964 284.313 52.0772C281.434 49.8704 277.815 48.9265 274.981 46.6443C275.065 47.0121 275.238 47.7477 275.327 48.1155C275.282 48.2041 275.189 48.3903 275.145 48.4789C274.253 47.7433 273.446 46.9146 272.576 46.1568Z" fill="#3A3C50"/>
<path d="M181.511 51.5144C182.975 51.1067 184.256 50.3046 185.618 49.6665C187.658 49.445 189.175 51.0181 190.293 52.4982C189.943 53.1762 189.588 53.8498 189.229 54.5189C188.949 54.4835 188.39 54.417 188.115 54.386C187.867 55.5337 187.614 56.6859 187.366 57.8336C186.771 56.2605 185.915 54.807 185.05 53.3712C184.811 53.8365 184.567 54.3062 184.327 54.7715C183.977 54.2398 183.635 53.708 183.294 53.1762C182.735 53.8764 182.167 54.5632 181.604 55.259C181.05 54.1378 180.42 52.5248 181.511 51.5144Z" fill="#3A3C50"/>
<path d="M351.853 54.5234C352.46 53.7966 353.369 53.482 354.208 53.092C354.372 53.1984 354.696 53.4066 354.855 53.5086C353.924 54.0315 352.957 54.5854 351.853 54.5234Z" fill="#3A3C50"/>
<path d="M225.715 54.3417C225.897 54.3461 226.256 54.3594 226.438 54.3683C227.676 54.417 228.918 54.5145 230.155 54.643C230.253 54.6519 230.452 54.674 230.554 54.6829C230.461 55.7287 230.479 56.779 230.483 57.8292C230.701 59.3403 229.614 60.5634 228.306 61.1306C226.899 61.3921 225.458 61.1085 224.043 61.0464C224.087 60.6609 224.176 59.8898 224.22 59.5043C224.482 57.7229 225.116 56.03 225.715 54.3417Z" fill="#3A3C50"/>
<path d="M331.493 56.5175C331.866 55.454 332.709 54.5544 333.813 54.2397C333.356 55.259 332.598 56.1851 331.493 56.5175Z" fill="#3A3C50"/>
<path d="M348.57 55.516C349.426 55.2324 350.336 54.4968 351.245 55.0596C350.376 55.5382 349.488 55.9769 348.601 56.4112C348.597 56.1896 348.579 55.742 348.57 55.516Z" fill="#3A3C50"/>
<path d="M189.677 57.5323C190.018 56.7524 190.621 56.1364 191.14 55.4761C192.786 56.3801 194.569 57.9533 193.811 60.0494C193.318 60.3551 192.835 60.6609 192.351 60.9755C191.704 60.8825 191.052 60.8204 190.408 60.754C190.306 60.7407 190.102 60.7185 190 60.7096C189.841 59.6594 189.539 58.6003 189.677 57.5323Z" fill="#3A3C50"/>
<path d="M344.977 58.1616C344.623 56.7524 346.628 56.553 347.617 56.646C346.778 57.2265 345.878 57.7007 344.977 58.1616Z" fill="#3A3C50"/>
<path d="M181.985 57.1822C182.163 57.9267 182.349 58.6889 182.779 59.3359C183.298 60.1912 184.487 59.8189 185.321 60.0405C185.339 60.6875 185.361 61.3345 185.339 61.9815C184.993 62.6949 184.602 63.3862 184.279 64.113C183.964 63.7717 183.644 63.435 183.329 63.0982C183.072 61.8618 182.828 60.5988 182.087 59.5397C181.533 58.844 181.835 57.9666 181.985 57.1822Z" fill="#3A3C50"/>
<path d="M408.246 74.6332C410.685 68.7217 413.276 62.8678 415.893 57.0271C418.221 59.203 420.656 61.2636 422.927 63.5014C427.979 68.3672 433.311 72.9315 438.363 77.7972C439.702 78.9538 440.9 80.6732 442.865 80.6599C450.578 81.2626 458.305 81.8387 466.014 82.5566C465.987 82.7693 465.939 83.2036 465.916 83.4207C462.976 90.1343 459.964 96.8213 457.001 103.522C456.18 103.384 455.369 103.251 454.566 103.092C449.603 101.984 444.613 100.841 439.871 98.975C438.283 98.3369 436.691 97.7076 435.107 97.0562C434.437 96.7815 433.781 96.4978 433.12 96.2275C430.335 94.9734 427.593 93.6263 424.968 92.0709C419.911 89.1683 415.072 85.8713 410.614 82.1134C408.414 80.4073 407.407 77.2965 408.246 74.6332Z" fill="#3A3C50"/>
<path d="M341.145 59.6106C341.513 58.4142 342.973 58.33 343.988 58.0729C343.332 59.0257 342.223 59.4068 341.145 59.6106Z" fill="#3A3C50"/>
<path d="M293.268 59.1542C294.08 59.4024 294.878 59.7126 295.681 60.0006C295.734 60.2 295.836 60.5989 295.89 60.7983C294.905 60.4349 293.539 60.3906 293.268 59.1542Z" fill="#3A3C50"/>
<path d="M300.951 61.5693C301.851 61.7865 303.31 61.3433 303.638 62.5221C302.765 62.2695 301.119 62.8456 300.951 61.5693Z" fill="#3A3C50"/>
<path d="M316.759 62.1277C317.384 61.3389 319.158 60.7584 319.602 61.9593C318.653 62.0568 317.703 62.1277 316.759 62.1277Z" fill="#3A3C50"/>
<path d="M309.063 62.1986C309.826 62.1764 310.598 62.1498 311.37 62.1233C311.387 62.3138 311.418 62.6949 311.436 62.8855C310.593 62.8988 309.755 62.9165 308.921 62.9298C308.957 62.7481 309.028 62.3803 309.063 62.1986Z" fill="#3A3C50"/>
<path d="M223.591 68.766C225.972 66.794 228.128 64.5827 230.266 62.3581C230.404 62.7259 230.674 63.4615 230.812 63.8294L230.86 64.237C230.936 66.8472 230.94 69.4617 230.927 72.0718C228.159 72.3421 225.374 72.8695 222.588 72.6257C224.11 71.8724 223.471 70.1087 223.591 68.766Z" fill="#3A3C50"/>
<path d="M246.62 69.5016C247.214 68.088 247.831 66.661 248.86 65.5C251.712 67.6758 254.577 69.9713 256.79 72.8119C256.436 73.1974 256.085 73.5874 255.735 73.9773C253.3 73.4766 251.525 71.4736 249.019 71.1456L248.944 71.0083C248.66 69.8915 247.631 69.5991 246.62 69.5016Z" fill="#3A3C50"/>
<path d="M202.309 72.9359C205.489 70.8354 209.14 68.7748 213.105 69.3996C211.624 71.2697 209.588 72.9138 209.441 75.4884C208.199 75.9803 206.953 76.4678 205.724 76.9907C205.56 77.0572 205.232 77.1901 205.072 77.2566C204.096 77.5978 203.116 77.9257 202.127 78.2093C201.905 76.6672 201.741 75.1162 201.542 73.5696C201.475 73.4278 201.342 73.1442 201.271 73.0024C201.533 72.9847 202.047 72.9536 202.309 72.9359Z" fill="#3A3C50"/>
<path d="M232.976 71.7439C235.726 70.6759 238.592 69.9492 241.466 69.2978C242.357 69.1515 243.258 69.0496 244.158 68.9432C244.526 70.1619 244.89 71.3761 245.254 72.5903C242.357 72.6435 239.492 72.1117 236.596 72.1161C235.38 72.1073 234.169 71.9699 232.976 71.7439Z" fill="#3A3C50"/>
<path d="M467.491 82.5654C470.037 82.9155 472.614 82.9731 475.173 83.1903C475.173 83.3808 475.169 83.7619 475.169 83.9525C472.987 89.3455 470.525 94.6499 468.17 99.9809C467.114 102.485 464.515 104.2 461.809 104.235C460.54 104.2 459.285 104.045 458.034 103.885C461.286 96.8258 464.249 89.6336 467.491 82.5654Z" fill="#3A3C50"/>
<path d="M351.586 89.7931C362.999 89.1018 374.447 89.2303 385.873 89.6203C385.855 90.1698 385.851 90.7193 385.851 91.2687C381.043 91.2333 376.252 90.7503 371.44 90.9009C364.857 90.7547 358.293 91.1402 351.715 91.3574C351.569 91.1846 351.276 90.8433 351.13 90.6705C352.527 90.7237 353.928 90.7724 355.334 90.83L355.272 90.152C354.035 90.059 352.811 89.9305 351.586 89.7931Z" fill="#3A3C50"/>
<path d="M208.412 94.096C214.919 92.8463 221.524 91.9202 228.172 92.062C240.672 91.8138 253.042 93.8744 265.44 95.1817C268.168 95.3368 270.86 95.904 273.605 95.8065C273.628 96.3871 273.654 96.9676 273.681 97.5525C261.754 96.6219 249.911 94.7474 237.971 93.9187C231.393 93.7149 224.779 93.5199 218.219 94.1979C214.79 94.4771 211.464 95.4565 208.044 95.7401C208.159 95.1906 208.284 94.6411 208.412 94.096Z" fill="#3A3C50"/>
<path d="M296.085 95.7977C299.775 95.9528 303.346 94.8006 306.992 94.4239C306.81 94.9557 306.628 95.483 306.451 96.0104C297.588 97.9558 288.465 98.4477 279.425 97.9026C279.412 97.455 279.403 97.0119 279.398 96.5687C279.678 96.5377 280.232 96.4712 280.512 96.4402C286.007 96.777 291.481 96.3117 296.963 96.068C296.67 95.9749 296.377 95.8863 296.085 95.7977Z" fill="#3A3C50"/>
<path d="M344.862 102.223C357.379 101.217 369.954 101.284 382.506 101.51C384.591 101.536 386.663 101.882 388.756 101.851C391.732 101.824 394.677 102.365 397.654 102.378C397.827 102.689 398.173 103.313 398.346 103.624C397.844 103.863 397.325 103.991 396.784 104.018C380.258 102.706 363.638 102.6 347.093 103.686C344.512 103.752 341.957 104.24 339.371 104.107C339.358 103.677 339.349 103.247 339.344 102.821C341.141 102.325 343.013 102.307 344.862 102.223Z" fill="#3A3C50"/>
<path d="M295.14 108.121C299.088 107.909 302.951 107.027 306.832 106.367C306.819 106.894 306.81 107.421 306.801 107.953C302.188 108.857 297.531 109.987 292.802 109.805C292.811 109.402 292.82 108.994 292.829 108.591C293.583 108.365 294.346 108.161 295.14 108.121Z" fill="#3A3C50"/>
<path d="M320.183 118.42C325.967 117.215 331.888 116.851 337.752 116.173C340.48 116.08 343.172 115.58 345.905 115.588C345.962 115.912 346.082 116.55 346.14 116.874C344.702 117.374 343.177 117.379 341.682 117.476C336.288 117.968 330.895 118.464 325.523 119.187C323.873 119.298 322.241 119.807 320.578 119.661C320.418 119.258 320.294 118.837 320.183 118.42Z" fill="#3A3C50"/>
<path d="M342.157 140.994C360.648 139.518 379.269 139.576 397.765 141.02C398.177 141.658 398.199 142.793 397.139 142.647C383.433 141.552 369.661 141.273 355.924 141.822C350.34 141.884 344.773 142.726 339.198 142.647C339.158 140.949 341.017 141.215 342.157 140.994Z" fill="#3A3C50"/>
<path d="M321.278 143.338C324.907 142.811 328.553 142.177 332.225 142.137C332.194 142.58 332.168 143.028 332.146 143.475C328.402 144.069 324.623 144.419 320.87 144.907C319.668 144.743 320.436 143.316 321.278 143.338Z" fill="#3A3C50"/>
<path d="M404.742 142.328C406.387 141.357 408.295 142.226 410.064 142.266C413.063 142.744 416.163 142.744 419.073 143.662C418.971 143.989 418.762 144.65 418.656 144.982C414.318 144.357 409.967 143.794 405.598 143.458C405.385 143.178 404.955 142.611 404.742 142.328Z" fill="#3A3C50"/>
<path d="M208.421 144.924C212.2 143.839 216.139 143.391 220.051 143.081C220.002 143.635 219.949 144.189 219.896 144.743C215.979 144.796 212.187 145.877 208.324 146.329C208.355 145.859 208.386 145.39 208.421 144.924Z" fill="#3A3C50"/>
<path d="M229.694 143.134C231.295 142.983 232.901 142.873 234.511 142.788C236.99 142.656 239.448 143.152 241.927 143.023C242.983 143.072 244.118 142.82 245.098 143.338C243.444 143.285 241.781 143.351 240.131 143.178C236.653 142.78 233.167 143.586 229.694 143.134Z" fill="#3A3C50"/>
<path d="M130.285 151.328C130.378 149.857 132.529 149.179 133.501 150.269C134.49 151.058 133.935 152.462 133.421 153.366C132.565 153.388 131.713 153.384 130.862 153.34C130.547 152.71 130.094 152.068 130.285 151.328ZM131.562 150.455C130.848 150.778 130.897 151.62 130.724 152.263C130.95 152.458 131.403 152.852 131.629 153.052C132.259 152.879 133.266 152.976 133.452 152.161C133.971 151.124 132.52 149.746 131.562 150.455Z" fill="#3A3C50"/>
<path d="M361.952 153.734C366.796 153.521 371.657 153.508 376.501 153.703C374.549 154.093 372.553 153.876 370.579 153.925C367.705 153.894 364.818 154.031 361.952 153.734Z" fill="#3A3C50"/>
<path d="M242.956 158.055C243.187 157.647 242.956 156.654 243.715 156.872C247.405 157.093 251.091 157.62 254.768 158.037C260.521 158.613 266.26 159.331 272.013 159.925C271.654 160.43 271.286 160.935 270.944 161.454C261.931 160.638 252.985 159.163 243.963 158.542C243.71 158.423 243.209 158.179 242.956 158.055Z" fill="#3A3C50"/>
<path d="M305.089 158.702C305.612 158.201 306.805 158.888 306.353 159.588C305.763 159.841 304.827 159.446 305.089 158.702Z" fill="#3A3C50"/>
<path d="M208.426 171.486C225.116 167.374 242.437 169.723 259.257 171.65C259.629 171.916 259.988 172.231 260.41 172.439C261.319 171.597 262.561 172.071 263.652 172.173C266.979 172.656 270.363 172.652 273.668 173.29C273.499 173.738 273.761 174.85 272.976 174.668C267.028 174.38 261.146 173.379 255.225 172.811C241.262 171.181 227.041 169.838 213.061 172.076C211.495 172.435 209.925 172.891 208.306 172.838C208.337 172.501 208.394 171.823 208.426 171.486Z" fill="#3A3C50"/>
<path d="M297.854 173.091C300.871 172.554 303.922 172.2 306.921 171.535C306.765 172.102 306.61 172.665 306.455 173.232C302.561 174.003 298.64 174.69 294.674 175.014C294.098 175.058 293.53 175.023 292.971 174.899C291.804 174.606 290.602 174.509 289.405 174.54C286.327 174.602 283.248 174.491 280.174 174.659C280.015 174.5 279.687 174.185 279.527 174.026C283.568 174.026 287.693 174.602 291.671 173.684C293.707 173.281 295.788 173.263 297.854 173.091Z" fill="#3A3C50"/>
<path d="M238.01 182.919C240.397 182.33 242.916 182.831 245.316 182.193C258.764 183.367 272.155 185.711 285.697 185.795C285.701 186.19 285.706 186.983 285.71 187.382C283.262 187.258 280.782 187.559 278.36 187.129C276.564 186.97 274.763 186.992 272.971 186.832C264.938 185.964 256.857 185.211 248.86 184.027C245.231 183.788 241.581 183.5 237.984 183.092L238.01 182.919Z" fill="#3A3C50"/>
<path d="M142.616 184.736C143.614 182.689 146.696 182.272 148.293 183.846C149.633 184.129 151.07 184.665 151.584 186.066C152.675 187.927 150.981 190.085 151.957 191.951C152.888 193.245 154.179 194.228 155.177 195.474C155.155 195.864 155.111 196.644 155.088 197.034C154.392 197.627 153.589 198.079 152.675 198.234L152.432 197.853C151.363 195.833 149.207 194.849 147.215 193.971C147.206 193.488 147.193 193.005 147.175 192.522C148.018 191.047 148.604 189.451 149.105 187.83C146.931 188.796 144.829 187.404 143.374 185.866C143.303 186.806 143.232 187.745 143.152 188.685C142.07 187.705 141.897 185.977 142.616 184.736Z" fill="#3A3C50"/>
<path d="M143.042 189.726C143.481 190.949 144.102 192.106 145.051 193.014C144.94 193.404 144.718 194.175 144.612 194.561C144.142 194.592 143.68 194.654 143.219 194.72C142.296 193.187 142.607 191.357 143.042 189.726Z" fill="#3A3C50"/>
<path d="M409.532 204.842C410.326 204.651 411.129 204.469 411.932 204.288C413.067 205.214 414.393 206.207 414.371 207.837C415.87 208.254 417.436 208.316 418.953 208.675C418.971 209.007 419.015 209.676 419.033 210.009C418.088 210.035 417.135 210.031 416.199 209.925C416.549 209.783 417.25 209.499 417.6 209.357C416.74 209.282 415.888 209.224 415.037 209.171C414.726 210.093 413.95 210.567 413.058 210.811C412.721 209.291 412.331 207.789 411.878 206.309C411.089 205.821 410.308 205.329 409.532 204.842Z" fill="#3A3C50"/>
<path d="M356.536 205.342C357.175 205.28 357.818 205.258 358.47 205.272C360.32 205.36 362.174 205.453 364.028 205.604C361.535 205.892 358.994 205.888 356.536 205.342Z" fill="#3A3C50"/>
<path d="M391.559 205.985C396.279 205.883 400.963 206.557 405.655 206.933C406.37 207.111 406.893 206.499 407.492 206.233L407.678 207.071C407.199 207.137 406.724 207.204 406.259 207.275C406.689 208.077 407.172 208.865 407.319 209.787C407.203 209.561 406.982 209.114 406.871 208.888C401.885 207.917 396.731 207.877 391.675 207.341C391.63 206.885 391.59 206.433 391.559 205.985Z" fill="#3A3C50"/>
<path d="M216.108 208.688C217.39 208.436 218.694 208.267 220.002 208.201C219.989 208.631 219.971 209.49 219.958 209.92C218.658 209.996 217.359 210.142 216.055 210.12C215.93 210.093 215.682 210.035 215.553 210.009C215.735 209.566 215.922 209.123 216.108 208.688Z" fill="#3A3C50"/>
<path d="M429.292 210.018C429.887 209.796 430.494 209.588 431.098 209.38C431.475 209.548 431.86 209.712 432.255 209.871C433.271 209.911 434.278 209.769 435.298 209.699C436.207 210.749 437.675 211.786 437.312 213.377C437.086 215.092 435.644 216.155 434.22 216.891C434.225 216.426 434.247 215.965 434.287 215.504C434.783 214.728 435.391 213.833 434.65 212.978C434.327 213.199 433.679 213.651 433.355 213.873C433.311 213.044 433.262 212.216 433.213 211.391C432.184 211.493 431.155 211.595 430.139 211.755C430.113 212.003 430.055 212.49 430.029 212.734C429.789 211.826 429.527 210.922 429.292 210.018Z" fill="#3A3C50"/>
<path d="M208.803 209.845C209.579 209.716 210.351 209.588 211.14 209.517C211.504 209.495 212.24 209.45 212.604 209.433C211.464 210.292 210.173 210.917 208.794 211.285C208.794 210.988 208.798 210.39 208.798 210.093L208.803 209.845Z" fill="#3A3C50"/>
<path d="M142.101 214.329C145.313 215.016 148.692 215.482 151.868 214.347C152.511 217.041 152.955 219.988 151.735 222.598C150.356 225.683 146.976 227.079 144 228.164C140.274 229.352 136.433 230.225 132.52 230.478C131.886 232.268 131.323 234.089 130.768 235.91C130.547 236.611 130.32 237.315 130.094 238.024C127.34 237.515 124.652 236.695 121.875 236.309C121.339 232.684 120.988 228.98 121.463 225.328C121.676 223.609 122.359 221.805 123.84 220.79C125.73 219.386 127.806 218.225 129.975 217.298C134.064 216.683 138.251 217.334 142.376 217.002C142.323 216.363 142.274 215.73 142.19 215.105C142.168 214.91 142.123 214.524 142.101 214.329Z" fill="#3A3C50"/>
<path d="M217.598 220.463C218.366 220.33 219.142 220.272 219.918 220.232C219.985 220.684 220.06 221.141 220.131 221.601L219.466 221.739C219.479 221.982 219.497 222.47 219.505 222.709L219.346 221.925C218.445 222.009 217.545 222.089 216.653 222.213C217.66 221.974 218.765 221.562 218.907 220.369C218.578 220.392 217.926 220.44 217.598 220.463Z" fill="#5F719C"/>
<path d="M214.609 220.972C214.733 221.114 214.981 221.393 215.105 221.535C214.777 221.894 214.445 222.253 214.112 222.612C212.218 222.997 210.302 223.263 208.399 223.596C208.39 223.206 208.372 222.417 208.363 222.022C208.896 221.991 209.432 221.956 209.974 221.92C211.375 221.087 213.034 221.105 214.609 220.972Z" fill="#5F719C"/>
<path d="M294.727 223.963C298.839 223.866 302.827 222.696 306.907 222.364C306.867 222.793 306.828 223.232 306.797 223.666C302.308 224.823 297.668 225.528 293.033 225.63C293.042 225.164 293.055 224.703 293.069 224.247C293.619 224.158 294.173 224.061 294.727 223.963Z" fill="#3A3C50"/>
<path d="M278.125 224.619C280.183 224.424 282.264 224.402 284.326 224.624C282.277 224.974 280.17 224.938 278.125 224.619Z" fill="#3A3C50"/>
<path d="M420.381 237.311C420.168 236.429 421.211 236.34 421.752 235.973L422.124 235.791C422.497 237.696 423.588 239.584 423.127 241.569C422.674 242.819 421.282 243.178 420.115 243.338C420.421 243.156 421.042 242.784 421.348 242.602C421.535 240.75 420.608 239.092 420.381 237.311Z" fill="#3A3C50"/>
<path d="M425.66 242.363C429.585 242.952 433.732 243.271 437.573 242.066C439.383 244.53 440.248 247.556 440.359 250.587C440.709 254.766 439.711 259.109 441.197 263.146C441.938 264.591 442.719 266.022 443.561 267.413C441.619 268.087 439.765 268.978 437.902 269.833C437.742 269.873 437.427 269.953 437.267 269.993C436.926 269.368 436.589 268.747 436.234 268.145C434.961 266.319 433.772 264.427 433.04 262.317C432.73 261.285 432.388 260.261 432.038 259.251C431.408 260.496 430.818 261.768 430.432 263.115C430.925 264.958 431.603 266.758 431.843 268.663L431.679 268.938L431.231 269.022C429.439 269.244 427.647 269.434 425.872 269.744C425.535 269.798 424.857 269.895 424.515 269.948C424.418 269.346 424.32 268.747 424.222 268.154C423.934 266.505 423.641 264.861 423.522 263.195C423.14 259.286 423.659 255.378 424.143 251.505C424.586 248.447 424.879 245.358 425.66 242.363Z" fill="#3A3C50"/>
<path d="M120.309 247.277C122.412 247.299 124.505 247.055 126.599 246.918C127.553 249.165 127.264 251.562 126.861 253.898C126.635 253.906 126.182 253.924 125.956 253.933C125.743 252.759 125.517 251.589 125.126 250.468C124.488 251.545 124.026 252.719 123.978 253.986C120.5 253.756 116.938 255.037 113.545 253.836C113.532 253.432 113.519 253.038 113.51 252.639C114.761 252.081 116.038 251.589 117.333 251.146C118.447 249.958 119.409 248.638 120.309 247.277Z" fill="#3A3C50"/>
<path d="M444.502 279.467C445.22 279.25 445.939 279.028 446.671 278.816C446.79 279.095 446.919 279.378 447.061 279.662C447.629 280.725 448.001 281.873 448.361 283.025C445.961 283.956 443.442 284.554 441.095 285.609C447.256 285.839 453.435 285.622 459.6 285.715C459.409 286.256 459.223 286.801 459.032 287.342C461.986 298.686 464.883 310.053 467.699 321.428L466.701 321.291C466.52 320.564 466.324 319.851 466.138 319.137C460.394 319.137 454.65 319.106 448.911 319.15C449.576 321.464 450.148 323.803 450.729 326.143C456.407 326.161 462.084 326.094 467.766 326.183C467.513 324.628 467.158 323.09 466.777 321.565L467.793 321.659C470.059 330.38 472.224 339.127 474.49 347.848C474.57 348.345 474.641 348.85 474.69 349.364C472.964 349.054 471.208 349.156 469.469 349.151C464.799 349.182 460.128 349.098 455.457 349.191C451.208 331.855 446.742 314.573 442.475 297.246C442.763 297.374 443.34 297.631 443.628 297.76C444.058 299.586 444.519 301.407 444.941 303.242C450.636 303.299 456.331 303.259 462.026 303.242C461.521 300.751 460.798 298.314 460.221 295.841C454.539 295.894 448.853 295.828 443.167 295.877C443.246 296.284 443.411 297.1 443.49 297.507C442.027 296.568 441.836 294.786 441.432 293.249C440.904 291.086 440.363 288.928 439.809 286.774C436.309 286.854 432.81 286.708 429.31 286.797C425.686 300.685 422.262 314.626 418.776 328.554C417.188 335.033 415.382 341.458 413.901 347.968C413.821 348.26 413.661 348.845 413.586 349.138C407.163 349.133 400.741 349.191 394.323 349.129L394.345 348.593C399.579 328.576 404.533 308.484 409.758 288.463C409.984 287.55 409.794 286.619 409.683 285.711C413.559 285.773 417.432 285.591 421.308 285.538C422.262 283.85 424.151 283.305 425.908 282.848C426.635 282.697 427.376 282.573 428.117 282.449C429.133 283.504 430.144 284.568 431.262 285.529C430.246 284.35 429.115 283.274 428.046 282.148C429.079 282.161 430.135 282.161 431.182 282.237C431.475 283.389 431.723 284.554 431.94 285.733C434.074 285.644 436.216 285.817 438.345 285.622C439.223 282.684 442.111 281.306 444.338 279.516L444.502 279.467ZM411.218 286.757C410.446 289.495 409.745 292.256 409.159 295.043C414.806 295.079 420.452 295.048 426.103 295.057C426.755 292.287 427.642 289.571 428.126 286.766C422.488 286.783 416.851 286.841 411.218 286.757ZM440.9 286.797C441.548 289.557 442.24 292.309 442.989 295.043C448.644 295.074 454.295 295.057 459.951 295.048C459.356 292.287 458.42 289.606 457.972 286.814C453.138 286.73 448.307 286.894 443.477 286.726C443.335 287.085 443.198 287.444 443.065 287.811C443.113 287.55 443.211 287.031 443.26 286.774C442.47 286.783 441.681 286.788 440.9 286.797ZM408.84 295.89C408.286 298.349 407.616 300.778 406.959 303.211C412.659 303.312 418.359 303.237 424.063 303.242C424.666 300.769 425.358 298.314 425.85 295.814C420.182 295.93 414.509 295.797 408.84 295.89ZM405.185 310.607C410.872 310.589 416.562 310.607 422.253 310.607C422.737 308.417 423.358 306.268 423.828 304.084C418.137 303.995 412.442 304.052 406.751 304.057C406.219 306.237 405.58 308.395 405.185 310.607ZM445.207 304.039C445.682 306.233 446.418 308.369 446.746 310.593C452.486 310.624 458.23 310.589 463.974 310.615C463.233 308.484 463.06 306.122 462.168 304.088C456.518 303.995 450.858 304.017 445.207 304.039ZM404.906 311.378C404.351 313.717 403.753 316.048 403.145 318.375C408.88 318.339 414.611 318.419 420.346 318.326C420.723 315.964 421.543 313.7 421.951 311.342C416.27 311.435 410.588 311.364 404.906 311.378ZM447.061 311.378C447.615 313.7 448.201 316.008 448.782 318.326C454.495 318.375 460.217 318.437 465.93 318.3C465.362 316.013 464.67 313.757 464.226 311.444C458.505 311.289 452.783 311.435 447.061 311.378ZM402.91 319.11C402.431 321.477 401.606 323.759 401.184 326.139C406.88 326.156 412.575 326.103 418.27 326.174C418.962 323.839 419.494 321.455 420.12 319.102C414.384 319.159 408.645 319.133 402.91 319.11ZM400.985 326.892C400.35 329.254 399.818 331.643 399.162 333.996C404.857 333.668 410.57 333.956 416.274 333.841C417.046 331.572 417.512 329.201 418.133 326.888C412.415 326.905 406.702 326.91 400.985 326.892ZM450.924 326.928C451.465 329.21 452.171 331.452 452.579 333.765C458.345 333.947 464.116 333.832 469.886 333.832C469.305 331.523 468.604 329.25 468.13 326.919C462.395 326.897 456.659 326.874 450.924 326.928ZM398.993 334.634C397.809 339.225 396.669 343.829 395.458 348.416C401.211 348.416 406.964 348.42 412.721 348.407C413.276 346.421 413.648 344.387 414.331 342.442C408.627 342.553 402.923 342.411 397.219 342.517L397.277 341.666C402.976 341.751 408.68 341.706 414.384 341.689C415.054 339.367 415.578 337.005 416.105 334.652C410.401 334.634 404.697 334.674 398.993 334.634ZM453.036 334.638C453.359 337.049 454.131 339.371 454.615 341.755C460.39 341.644 466.165 341.746 471.944 341.706C471.248 339.375 470.729 336.996 470.086 334.652C464.399 334.643 458.718 334.66 453.036 334.638ZM454.832 342.486C455.351 344.449 455.87 346.417 456.291 348.407C462.057 348.424 467.824 348.416 473.59 348.411C473.035 346.466 472.534 344.503 472.179 342.513C466.395 342.446 460.611 342.495 454.832 342.486Z" fill="#3A3C50"/>
<path d="M311.884 307.7C311.423 305.843 313.583 304.775 315.113 304.549C315.73 304.349 316.107 304.602 316.235 305.302C317.473 305.541 318.715 305.781 319.979 305.9C320.116 307.5 319.558 309.002 318.786 310.376C317.921 309.96 316.972 309.791 316.062 309.534C314.86 309.109 313.729 307.996 312.376 308.528C311.64 309.064 311.414 309.982 311.068 310.771C309.804 309.645 310.372 307.824 310.491 306.375C311.143 306.565 311.516 307.172 311.884 307.7Z" fill="#3A3C50"/>
<path d="M298.702 339.008C299.842 338.755 300.959 338.405 302.064 338.028C302.33 337.971 302.858 337.855 303.12 337.798C303.363 337.873 303.843 338.028 304.086 338.108C304.135 338.423 304.237 339.052 304.29 339.367L304.379 339.819C310.456 340.062 316.555 339.885 322.64 339.912C323.66 340.111 323.789 338.981 324.024 338.276C324.255 338.214 324.716 338.09 324.947 338.028C325.324 338.981 326.02 339.748 326.774 340.43C328.327 341.861 329.741 343.43 331.236 344.924C331.831 345.544 332.447 346.155 332.926 346.882C333.055 347.649 332.767 348.424 332.656 349.187C329.409 349.302 326.149 349.009 322.906 349.306C323.958 349.036 325.04 348.779 325.949 348.163C326.189 347.525 326.198 346.802 325.945 346.173C324.96 345.327 323.612 345.229 322.396 344.994C322.245 346.377 322.05 347.76 321.851 349.138C316.923 349.164 311.991 349.235 307.067 349.12C305.422 348.256 303.594 347.866 301.776 347.578C302.011 347.977 302.476 348.77 302.707 349.169C299.895 349.213 297.083 349.244 294.275 349.138C294.421 348.367 294.421 347.547 294.772 346.838C295.459 345.974 296.568 345.641 297.526 345.167C296.914 344.316 295.947 343.497 296.138 342.336C296.12 340.762 297.566 339.814 298.702 339.008Z" fill="#3A3C50"/>
<path d="M325.404 338.431C326.18 338.383 326.965 338.463 327.737 338.573C329.258 339.105 331.037 339.593 331.768 341.197C332.594 342.398 332.172 343.926 331.236 344.924C329.679 342.411 327.022 340.864 325.404 338.431Z" fill="#3A3C50"/>
<path d="M227.609 52.0994C227.942 51.6296 228.292 51.1732 228.643 50.7168C228.98 50.7345 229.658 50.7655 229.995 50.7832C230.129 50.7921 230.399 50.8143 230.537 50.8231C230.129 52.0595 230.004 53.3535 230.155 54.643C228.918 54.5145 227.676 54.417 226.438 54.3683C226.797 53.5972 227.135 52.8084 227.609 52.0994Z" fill="#D8D3DB"/>
<path d="M183.294 53.1762C183.635 53.708 183.977 54.2398 184.327 54.7715C184.567 54.3062 184.811 53.8365 185.05 53.3712C185.915 54.807 186.771 56.2605 187.366 57.8336C187.614 56.6859 187.867 55.5337 188.115 54.386C188.39 54.417 188.949 54.4835 189.229 54.5189C189.251 54.6873 189.3 55.0285 189.326 55.1969C188.594 56.2871 187.964 57.4437 187.419 58.6357C187.849 59.2916 188.284 59.9519 188.719 60.6121C188.59 60.8514 188.461 61.0907 188.333 61.33C187.858 62.1587 187.206 62.8544 186.518 63.5059C186.119 62.9962 185.729 62.4911 185.339 61.9815C185.361 61.3345 185.339 60.6875 185.321 60.0405C184.487 59.8189 183.298 60.1912 182.779 59.3359C182.349 58.6889 182.163 57.9267 181.985 57.1822C181.857 56.5397 181.75 55.8927 181.604 55.259C182.167 54.5632 182.735 53.8764 183.294 53.1762Z" fill="#D8D3DB"/>
<path d="M547.082 61.0242C549.415 60.5235 552.019 60.169 554.272 61.1572C552.578 61.2635 550.888 60.9755 549.198 61.0907C547.756 61.1749 546.523 61.9637 545.281 62.6151C545.725 61.9371 546.182 61.1262 547.082 61.0242Z" fill="#D8D3DB"/>
<path d="M244.469 69.3731C245.183 69.4041 245.906 69.4085 246.62 69.5016C247.631 69.5991 248.66 69.8916 248.944 71.0083C247.942 71.9034 246.726 72.4972 245.422 72.7941C245.143 71.642 244.85 70.4942 244.469 69.3731Z" fill="#D8D3DB"/>
<path d="M178.601 77.2876C179.555 77.8637 180.535 78.3955 181.551 78.874C181.453 79.0823 181.262 79.5033 181.165 79.7116C179.515 79.8224 177.847 79.7958 176.206 79.5609C175.753 78.976 175.319 78.3822 174.893 77.7795C176.264 77.9922 177.576 78.4309 178.849 78.9671C178.765 78.4087 178.681 77.846 178.601 77.2876Z" fill="#D8D3DB"/>
<path d="M182.331 96.6308C183.454 95.6071 185.077 95.6913 186.492 95.6647C189.362 95.7223 192.24 95.647 195.106 95.8597C195.137 97.7564 195.159 99.653 195.123 101.55C192.24 101.483 189.362 101.496 186.479 101.541C185.175 101.519 183.658 101.652 182.677 100.61C181.413 99.6929 181.582 97.8184 182.331 96.6308Z" fill="#D8D3DB"/>
<path d="M435.107 97.0562C436.691 97.7076 438.283 98.3369 439.871 98.975C439.064 99.9233 438.19 101.333 436.735 101.058C435.79 100.641 435.05 99.8967 434.26 99.2586C434.544 98.5274 434.819 97.7918 435.107 97.0562Z" fill="#D8D3DB"/>
<path d="M444.493 124.061C445.801 119.705 449.234 116.519 451.63 112.774C451.479 113.594 451.399 114.423 451.319 115.252C451.891 115.549 452.468 115.841 453.049 116.142C453.497 115.921 453.949 115.699 454.402 115.469C453.169 118.992 453.75 123.144 451.448 126.273C451.541 125.426 451.67 124.584 451.816 123.742C451.581 123.871 451.12 124.119 450.884 124.247C450.867 123.849 450.831 123.051 450.813 122.652C450.432 123.689 450.055 124.735 449.696 125.781C450.117 125.373 450.547 124.97 450.978 124.562C450.738 125.555 450.494 126.543 450.255 127.531C450.046 126.982 449.847 126.428 449.656 125.878C449.23 126.995 448.8 128.107 448.347 129.211C448.09 129.029 447.842 128.843 447.598 128.666C449.044 126.069 450.157 123.241 450.632 120.299C449.217 122.59 448.747 125.333 447.212 127.562C447.376 124.987 449.004 122.856 449.691 120.423C449.15 120.977 448.627 121.54 448.072 122.076C447.447 122.435 447.442 122.701 448.063 122.869C447.225 124.726 446.382 126.574 445.557 128.435C445.389 127.469 444.976 126.454 445.309 125.475C445.872 123.818 446.897 122.36 447.46 120.698C446.254 121.615 445.415 122.883 444.493 124.061Z" fill="#D8D3DB"/>
<path d="M480.256 139.5C487.007 139.465 493.758 139.518 500.509 139.474C501.747 139.496 503.122 139.274 504.164 140.112C503.299 140.511 502.354 140.692 501.409 140.639C494.171 140.515 486.932 140.741 479.702 140.52C479.879 140.178 480.066 139.842 480.256 139.5Z" fill="#D8D3DB"/>
<path d="M480.292 143.941C482.022 143.856 483.787 143.71 485.481 144.176C485.331 144.375 485.025 144.765 484.874 144.96C483.14 144.96 481.379 145.173 479.684 144.707C479.84 144.512 480.141 144.131 480.292 143.941Z" fill="#D8D3DB"/>
<path d="M488.471 143.972C493.625 143.799 498.788 143.874 503.947 143.945C503.955 144.198 503.969 144.703 503.978 144.955C499.267 145.004 494.552 145.018 489.842 144.982C489.114 145.124 488.826 144.437 488.471 143.972Z" fill="#D8D3DB"/>
<path d="M479.933 149.094C485.308 148.846 490.693 149.072 496.073 148.992C498.792 149.059 501.538 148.766 504.235 149.254C503.711 150.087 502.647 149.879 501.822 149.945C495.022 149.91 488.218 149.945 481.419 149.945C480.744 150.047 480.336 149.52 479.933 149.094Z" fill="#D8D3DB"/>
<path d="M101.179 170.68C101.578 170.21 101.902 169.514 102.647 169.678C110.126 169.67 117.608 169.683 125.091 169.67C125.122 169.953 125.184 170.516 125.22 170.8C117.209 170.804 109.185 170.986 101.179 170.68Z" fill="#D8D3DB"/>
<path d="M101.223 175.107C102.261 173.246 104.847 174.314 106.577 174.061C106.599 174.358 106.639 174.947 106.657 175.24C104.843 175.275 103.029 175.271 101.223 175.107Z" fill="#D8D3DB"/>
<path d="M110.299 174.07C115.262 174.105 120.225 173.981 125.189 174.088C125.184 174.358 125.171 174.899 125.162 175.169C120.185 175.306 115.204 175.293 110.228 175.164C110.245 174.89 110.281 174.345 110.299 174.07Z" fill="#D8D3DB"/>
<path d="M101.188 179.365C109.07 178.869 116.996 179.569 124.874 179.007C125.02 179.357 125.171 179.711 125.317 180.066C118.052 180.181 110.786 180.052 103.517 180.128C102.709 180.03 101.529 180.358 101.188 179.365Z" fill="#D8D3DB"/>
<path d="M143.374 185.866C144.829 187.404 146.931 188.796 149.105 187.83C148.604 189.451 148.018 191.047 147.175 192.522C147.193 193.005 147.206 193.488 147.215 193.971L146.971 194.618C146.182 194.61 145.397 194.57 144.612 194.561C144.718 194.175 144.94 193.404 145.051 193.014C144.102 192.106 143.481 190.949 143.042 189.726C143.081 189.376 143.121 189.03 143.152 188.685C143.232 187.745 143.303 186.806 143.374 185.866Z" fill="#D8D3DB"/>
<path d="M132.835 206.765C133.754 206.743 134.33 205.91 135.018 205.422C134.845 205.905 134.681 206.388 134.53 206.88C136.215 206.876 137.932 206.876 139.546 206.322C139.418 206.495 139.16 206.84 139.032 207.013C139.458 207.727 139.875 208.444 140.292 209.162C140.673 209.14 141.054 209.118 141.44 209.1C142.656 209.025 143.875 209.012 145.095 209.021C145.104 209.707 145.117 210.399 145.126 211.09C143.747 211.046 142.367 210.997 140.988 210.93C141.285 212.349 141.711 213.736 142.19 215.105C142.274 215.73 142.323 216.363 142.376 217.002C138.251 217.334 134.064 216.683 129.974 217.298C129.145 216.926 128.103 216.682 127.806 215.703C126.737 213.275 125.566 210.891 124.479 208.471C124.803 207.922 125.126 207.377 125.45 206.836C127.912 206.707 130.378 206.889 132.835 206.765ZM131.931 211.493C131.944 212.131 131.957 212.774 131.97 213.417C132.733 213.434 133.496 213.456 134.264 213.479C134.228 212.871 134.17 212.269 134.086 211.671C133.563 211.006 132.627 211.542 131.931 211.493Z" fill="#D8D3DB"/>
<path d="M430.14 211.755C431.155 211.595 432.184 211.493 433.213 211.391C433.262 212.216 433.311 213.044 433.355 213.873C433.679 213.651 434.327 213.199 434.65 212.978C435.391 213.833 434.783 214.728 434.287 215.504C434.247 215.965 434.225 216.425 434.22 216.891C434.265 217.728 434.287 218.708 435.196 219.071C434.42 218.987 433.759 219.403 433.116 219.749C432.588 219.753 432.065 219.758 431.55 219.762C431.546 218.925 431.541 218.087 431.537 217.254C429.74 216.417 430.206 214.343 430.029 212.734C430.055 212.49 430.113 212.003 430.14 211.755Z" fill="#D8D3DB"/>
<path d="M425.735 230.429C426.95 230.083 428.139 229.582 429.403 229.423C430.499 229.924 431.204 230.987 432.051 231.811C432.078 232.263 432.109 232.715 432.144 233.172C429.998 234.59 427.394 234.59 424.928 234.785C423.965 234.874 423.003 234.825 422.049 234.745C422.08 234.882 422.138 235.157 422.169 235.295C421.069 235.095 419.947 234.927 418.833 235.091C417.968 235.206 417.126 235.432 416.274 235.587C415.414 235.033 414.97 234.067 414.402 233.256C414.611 233.167 415.028 232.995 415.236 232.906C415.662 232.782 416.097 232.667 416.536 232.569C416.19 231.971 415.839 231.364 415.52 230.766C417.383 230.907 419.091 232.259 420.993 231.749C422.2 231.47 423.411 231.204 424.639 230.987C424.577 230.624 424.524 230.265 424.48 229.906C424.897 230.065 425.309 230.247 425.735 230.429Z" fill="#D8D3DB"/>
<path d="M225.595 235.321C230.155 235.232 234.733 234.275 239.283 235.148C242.85 235.224 246.42 235.423 249.933 236.11C253.907 236.983 257.948 237.47 261.927 238.312C271.534 240.258 281.102 242.411 290.798 243.865C292.727 244.016 294.648 244.237 296.493 244.858C299.465 245.066 302.432 245.38 305.413 245.567C294.75 245.722 284.091 245.611 273.428 245.646C249.503 245.606 225.578 245.722 201.657 245.589C201.684 245.358 201.732 244.906 201.755 244.68C204.363 243.151 206.873 241.459 209.517 239.987C211.823 239.004 214.201 238.17 216.538 237.258C219.519 236.464 222.526 235.711 225.595 235.321Z" fill="#D8D3DB"/>
<path d="M121.875 236.309C124.652 236.695 127.34 237.515 130.094 238.024C129.354 239.513 128.529 240.958 127.668 242.38C126.821 243.736 126.914 245.398 126.599 246.918C124.505 247.056 122.412 247.299 120.309 247.277C120.926 244.725 121.414 242.141 121.955 239.575C122.208 238.494 122.075 237.382 121.875 236.309Z" fill="#D8D3DB"/>
<path d="M437.902 269.833C439.765 268.978 441.619 268.087 443.561 267.413C443.987 268.136 444.719 268.738 444.799 269.625C445.198 272.731 446.076 275.745 446.671 278.816C445.939 279.028 445.22 279.25 444.502 279.467C442.674 276.848 440.878 274.207 439.108 271.548C438.713 270.963 438.319 270.391 437.902 269.833Z" fill="#D8D3DB"/>
<path d="M414.85 268.176C415.014 268.291 415.338 268.526 415.502 268.641C415.995 270.697 417.884 271.801 419.179 273.307C420.257 274.539 421.583 275.523 422.666 276.759C420.213 275.084 418.465 272.638 416.243 270.71C413.839 272.332 410.747 271.716 408.024 271.53C409.545 271.238 411.102 271.211 412.637 270.972C414.012 270.741 414.376 269.257 414.85 268.176Z" fill="#D8D3DB"/>
<path d="M425.873 269.744C427.647 269.434 429.439 269.244 431.231 269.022C431.333 269.864 431.444 270.715 431.532 271.566C431.71 274.211 431.621 276.87 431.324 279.507C431.231 280.411 431.142 281.324 431.182 282.237C430.135 282.161 429.079 282.161 428.046 282.148C429.115 283.274 430.246 284.35 431.262 285.529C430.144 284.568 429.133 283.504 428.117 282.449C427.376 282.573 426.635 282.697 425.908 282.848C426.826 282.529 427.727 282.166 428.645 281.829C428.387 281.04 428.13 280.256 427.877 279.476C426.995 276.914 426.369 274.282 425.717 271.659C423.233 271.495 420.639 271.996 418.252 271.123C420.639 271.096 423.038 271.256 425.425 270.998C425.535 270.688 425.762 270.059 425.873 269.744Z" fill="#D8D3DB"/>
<path d="M312.146 279.467L312.439 279.228C310.762 282.334 307.511 284.058 305.51 286.907C310.097 288.051 314.408 290.306 317.987 293.382C321.562 296.519 323.722 300.822 325.887 304.965C329.613 313.629 330.846 323.196 330.394 332.569C330.331 333.069 330.247 333.566 330.127 334.062C330.07 330.207 328.526 326.569 326.672 323.254C325.639 321.428 324.512 319.514 322.693 318.366C320.893 317.413 318.821 317.249 316.847 316.895C316.559 317.52 316.266 318.144 315.983 318.778C315.53 319.026 315.082 319.279 314.639 319.54C314.177 319.328 313.72 319.124 313.264 318.92C312.966 318.198 312.669 317.48 312.376 316.766C309.569 317.227 306.247 317.134 304.219 319.465C302.135 321.885 300.955 324.907 299.607 327.761C298.795 329.755 297.509 332.064 298.697 334.182C294.759 334.426 290.806 334.102 286.881 334.554C286.726 317.821 286.881 301.083 286.823 284.35C290.567 284.186 294.293 284.594 298.01 284.975C300.365 285.294 302.627 286.074 304.947 286.588C307.289 284.164 309.573 281.656 312.146 279.467ZM311.884 307.7C311.516 307.172 311.143 306.565 310.491 306.375C310.372 307.824 309.804 309.645 311.068 310.771C311.414 309.982 311.64 309.064 312.376 308.528C313.729 307.996 314.86 309.109 316.062 309.534C316.972 309.791 317.921 309.96 318.786 310.376C319.558 309.002 320.116 307.5 319.979 305.9C318.715 305.781 317.473 305.541 316.235 305.302C316.107 304.602 315.73 304.349 315.113 304.549C313.583 304.775 311.423 305.843 311.884 307.7Z" fill="#D8D3DB"/>
<path d="M131.882 302.701C132.716 302.271 133.656 302.169 134.587 302.222C138.588 302.338 142.598 302.196 146.603 302.307C146.027 302.612 145.472 303.055 144.785 303.047C142.274 303.122 139.764 303.016 137.253 303.06C135.461 303.029 133.616 303.268 131.882 302.701Z" fill="#D8D3DB"/>
<path d="M193.101 302.55C193.988 302.32 194.906 302.209 195.824 302.236C199.599 302.28 203.378 302.307 207.153 302.209C207.144 302.431 207.122 302.874 207.113 303.095C203.045 303.016 198.973 303.078 194.902 303.078C194.25 303.117 193.642 302.883 193.101 302.55Z" fill="#D8D3DB"/>
<path d="M212.156 302.267C214.174 302.249 216.201 302.284 218.219 302.182C218.224 302.413 218.224 302.869 218.224 303.095C216.543 303.038 214.853 303.153 213.176 303.02C212.728 302.971 212.488 302.51 212.156 302.267Z" fill="#D8D3DB"/>
<path d="M149.384 306.671C151.079 306.733 152.773 306.627 154.467 306.738C154.915 306.76 155.137 307.239 155.465 307.487C153.434 307.553 151.407 307.465 149.38 307.491C149.38 307.287 149.38 306.875 149.384 306.671Z" fill="#D8D3DB"/>
<path d="M324.516 326.068L325.084 326.382C325.027 329.205 324.525 331.997 324.357 334.815C324.286 335.445 324.525 336.052 324.698 336.659C324.791 337.106 324.876 337.563 324.947 338.028C324.716 338.09 324.255 338.214 324.024 338.276C323.789 338.981 323.66 340.111 322.64 339.912C316.555 339.885 310.456 340.062 304.379 339.818L304.29 339.366C304.486 339.225 304.876 338.937 305.076 338.79C308.881 339.185 312.762 339.22 316.555 338.653C319.234 338.281 322.059 336.911 323.066 334.235C324.33 331.678 323.856 328.762 324.516 326.068Z" fill="#D8D3DB"/>
<path d="M148.267 328C148.839 327.725 149.429 327.442 150.081 327.49C158.251 327.543 166.421 327.477 174.591 327.53C174.179 327.907 173.793 328.421 173.159 328.31C165.623 328.306 158.087 328.275 150.551 328.31C149.775 328.315 149.012 328.186 148.267 328Z" fill="#D8D3DB"/>
<path d="M312.687 331.851C313.507 331.873 314.332 331.904 315.162 331.935C315.375 332.644 315.588 333.353 315.814 334.071C314.958 334.598 313.938 335.507 312.962 334.647C311.915 334.031 312.58 332.755 312.687 331.851Z" fill="#D8D3DB"/>
<path d="M251.144 339.606C253.109 338.649 255.322 338.981 257.429 338.937C261.244 338.941 265.058 338.923 268.877 338.981C265.103 340.718 261.199 342.158 257.314 343.634C257.287 343.776 257.23 344.051 257.203 344.188C261.04 345.384 264.677 347.13 268.434 348.544C270.589 349.399 272.94 349.027 275.198 349.089C281.558 349.129 287.919 349.023 294.275 349.138C297.083 349.244 299.895 349.213 302.707 349.169C302.476 348.77 302.011 347.977 301.775 347.578C303.594 347.866 305.422 348.256 307.067 349.12C311.991 349.235 316.923 349.164 321.851 349.138C322.05 347.76 322.245 346.377 322.396 344.994C323.612 345.229 324.96 345.327 325.945 346.173C326.197 346.802 326.189 347.525 325.949 348.163C325.04 348.779 323.958 349.036 322.906 349.306C326.149 349.009 329.409 349.302 332.656 349.187C348.739 349.218 364.822 349.094 380.905 349.191C385.256 349.333 389.612 349.2 393.963 349.284C394.061 349.111 394.247 348.766 394.345 348.593L394.323 349.129C400.741 349.191 407.163 349.133 413.586 349.138C413.662 348.845 413.821 348.26 413.901 347.968C413.928 348.238 413.985 348.774 414.012 349.04C415.635 349.262 417.276 349.284 418.913 349.275C431.093 349.195 443.278 349.351 455.457 349.191C460.128 349.098 464.799 349.182 469.469 349.151C471.208 349.156 472.964 349.054 474.69 349.364C474.832 349.39 475.12 349.444 475.262 349.47C479.529 349.027 483.831 349.364 488.121 349.262C500.686 349.315 513.257 349.235 525.827 349.275C528.799 349.28 531.779 349.191 534.751 349.426C534.76 349.749 534.773 350.401 534.782 350.729C487.579 350.822 440.377 350.746 393.169 350.755C321.46 350.715 249.747 350.808 178.033 350.755C153.647 350.777 129.26 350.738 104.874 350.769C94.0956 350.658 83.3084 350.937 72.5345 350.64C72.5611 350.356 72.6188 349.789 72.6498 349.506C77.3027 348.925 81.9955 349.492 86.6661 349.275C96.3932 349.271 106.12 349.24 115.843 349.288C126.098 349.209 136.353 349.315 146.608 349.231C147.366 349.222 148.129 349.231 148.892 349.253C150.165 349.288 151.442 349.235 152.715 349.178C153.461 349.147 154.201 349.266 154.915 349.47L155.15 349.532C156.823 350.126 158.601 349.577 160.322 349.705C165.193 349.944 170.072 349.935 174.946 349.754C190.36 349.904 205.786 349.798 221.2 349.873C222.956 349.736 224.664 349.226 226.434 349.24C233.034 349.262 239.634 349.253 246.234 349.266C246.575 345.686 247.751 342.03 250.266 339.375C250.488 339.433 250.922 339.548 251.144 339.606Z" fill="#D8D3DB"/>
<path d="M184.846 340.346C187.015 340.554 189.26 340.08 191.367 340.785C189.255 341.387 187.037 341.135 184.873 341.179C184.864 340.971 184.855 340.554 184.846 340.346Z" fill="#D8D3DB"/>
<path d="M192.267 340.771C193.043 340.559 193.837 340.377 194.653 340.381C198.379 340.372 202.105 340.408 205.835 340.359C205.835 340.567 205.84 340.984 205.84 341.192C203.236 341.152 200.628 341.175 198.024 341.179C196.099 341.179 194.13 341.361 192.267 340.771Z" fill="#D8D3DB"/>
<path d="M212.524 340.683C214.303 340.142 216.219 340.279 218.024 340.634C216.37 341.631 214.334 341.033 212.515 341.206C212.515 341.077 212.52 340.816 212.524 340.683Z" fill="#D8D3DB"/>
<path d="M41.885 349.346C46.7552 349.133 51.6299 349.306 56.5001 349.275C59.4541 349.32 62.4171 349.107 65.3623 349.426C65.349 349.723 65.3179 350.321 65.3046 350.618C60.909 350.928 56.4957 350.715 52.0912 350.764C48.6936 350.684 45.296 350.897 41.9028 350.676C41.8984 350.343 41.8895 349.678 41.885 349.346Z" fill="#D8D3DB"/>
<path d="M401.646 358.683C404.138 358.435 406.645 358.63 409.142 358.586C412.145 358.621 415.156 358.448 418.15 358.776C417.875 359.401 417.503 360.11 416.691 359.981C411.692 360.101 406.684 360.097 401.686 359.995C401.677 359.667 401.655 359.011 401.646 358.683Z" fill="#D8D3DB"/>
<path d="M423.202 358.736C427.536 358.4 431.887 358.674 436.229 358.59C456.176 358.59 476.118 358.586 496.065 358.59C498.318 358.621 500.598 358.386 502.833 358.834C502.487 359.609 501.92 360.19 501.001 360.035C477.777 360.088 454.557 360.039 431.333 360.057C428.977 359.99 426.613 360.163 424.262 359.951C423.557 360.004 423.473 359.175 423.202 358.736Z" fill="#D8D3DB"/>
<path d="M447.194 60.3285C449.523 58.6844 452.623 60.5545 453.998 62.624C453.719 62.8323 453.16 63.2488 452.88 63.4527C457.245 69.0451 461.379 74.8193 465.85 80.3275C466.426 81.0499 466.963 81.8032 467.491 82.5654C464.249 89.6335 461.286 96.8257 458.034 103.885C457.165 106.101 456.203 108.277 455.187 110.43C454.464 111.791 454.752 113.359 454.632 114.831C454.575 114.99 454.459 115.309 454.402 115.469C453.949 115.699 453.497 115.921 453.049 116.142C452.468 115.841 451.891 115.549 451.319 115.252C451.399 114.423 451.479 113.594 451.63 112.774C452.149 112.327 452.858 112.22 453.488 111.968C453.914 110.993 454.304 110 454.624 108.986C455.333 107.133 456.189 105.334 457.001 103.522C459.964 96.8213 462.976 90.1343 465.916 83.4207C465.992 83.2301 466.147 82.8446 466.227 82.6496C465.486 81.7677 464.772 80.8682 464.08 79.9509L464.067 79.9376C460.341 74.7085 456.154 69.8251 452.437 64.5871C451.221 62.5487 448.534 62.2739 447.194 60.3285Z" fill="#EA7661"/>
<path d="M169.375 74.7439C170.391 72.4928 171.597 70.3391 172.653 68.1057C175.465 70.7911 178.375 73.3746 181.183 76.0689C181.693 76.5874 182.198 77.1192 182.704 77.6465C182.3 78.0409 181.901 78.4353 181.551 78.874C180.535 78.3954 179.555 77.8637 178.601 77.2876C178.681 77.8459 178.765 78.4087 178.85 78.9671C177.577 78.4309 176.264 77.9922 174.893 77.7795C175.319 78.3821 175.754 78.9759 176.206 79.5609C175.895 79.5875 175.266 79.6318 174.951 79.6584C172.928 78.2226 171.34 76.2639 169.375 74.7439Z" fill="#EA7661"/>
<path d="M195.279 79.1089C197.093 79.1576 198.911 79.2241 200.725 79.1709C200.947 87.8477 200.748 96.5288 200.814 105.206C200.81 151.988 200.819 198.775 200.819 245.553C201.027 245.562 201.448 245.58 201.657 245.589C225.578 245.722 249.503 245.606 273.428 245.646C284.091 245.611 294.75 245.722 305.413 245.567C325.75 245.602 346.086 245.451 366.423 245.62L366.392 245.075C367.399 245.106 368.406 245.132 369.417 245.208C369.91 245.509 370.446 245.633 371.027 245.589C387.718 245.496 404.414 245.593 421.104 245.54C422.298 245.522 423.5 245.536 424.697 245.633C424.932 242.021 424.932 238.401 424.928 234.785C427.394 234.59 429.998 234.59 432.144 233.172C432.109 232.715 432.078 232.263 432.051 231.811C431.204 230.987 430.499 229.924 429.403 229.423C428.139 229.582 426.95 230.083 425.735 230.429C425.309 230.247 424.897 230.065 424.48 229.906C423.233 229.884 421.996 229.915 420.758 229.87C420.732 229.711 420.687 229.392 420.665 229.237C420.532 227.65 420.514 226.059 420.537 224.473C421.362 224.048 422.173 223.591 422.963 223.099C423.597 222.842 424.227 222.594 424.875 222.35C425.017 186.026 424.923 149.697 424.923 113.373C426.511 114.613 428.166 115.77 429.656 117.144C428.72 116.173 427.687 115.3 426.684 114.41C426.737 114.188 426.848 113.749 426.906 113.532C426.187 113.257 425.58 112.797 424.928 112.42C424.972 105.64 424.897 98.8553 424.968 92.0708C427.594 93.6262 430.335 94.9734 433.12 96.2275C432.876 96.1433 432.388 95.9749 432.14 95.8907C432.344 133.881 432.118 171.881 432.255 209.871C431.86 209.712 431.475 209.548 431.098 209.379C430.494 209.588 429.887 209.796 429.292 210.018C429.527 210.922 429.789 211.826 430.029 212.734C430.206 214.343 429.74 216.417 431.537 217.254C431.541 218.087 431.546 218.925 431.55 219.762C432.065 219.758 432.588 219.753 433.116 219.749C433.759 219.403 434.42 218.987 435.196 219.071C437.201 220.055 439.232 221.619 439.49 224.008C439.92 229.879 438.594 235.676 438.137 241.498C437.999 241.64 437.715 241.924 437.573 242.066C433.732 243.271 429.585 242.952 425.66 242.363C424.879 245.358 424.586 248.447 424.143 251.505C382.773 251.434 341.402 251.496 300.032 251.474C265.067 251.416 230.102 251.602 195.137 251.354C195.19 245.469 194.769 239.602 194.875 233.717C194.915 197.977 194.884 162.242 194.893 126.503C194.919 118.185 194.773 109.863 195.123 101.55C195.159 99.653 195.137 97.7563 195.106 95.8597C195.057 92.4741 195.061 89.0885 195.097 85.7073C195.115 83.5049 195.066 81.3024 195.279 79.1089Z" fill="#EA7661"/>
<path d="M111.545 109.952C111.807 109.947 112.326 109.938 112.583 109.934C112.933 110.222 113.279 110.51 113.63 110.798C113.811 110.155 114.268 109.854 114.898 109.854C114.681 110.953 114.721 112.074 114.876 113.178C114.455 112.903 114.033 112.628 113.612 112.353C112.978 112.588 112.343 112.832 111.713 113.071C111.944 112.327 112.166 111.582 112.379 110.833C112.099 110.541 111.824 110.244 111.545 109.952Z" fill="#EA7661"/>
<path d="M472.175 119.382C472.406 118.119 472.459 116.838 472.21 115.575C472.964 116.577 474.158 116.147 475.196 115.992C474.947 116.515 474.597 117.011 474.49 117.587C474.681 118.136 474.996 118.637 475.298 119.142C474.53 118.792 473.705 118.633 472.876 118.584C472.703 118.783 472.352 119.182 472.175 119.382Z" fill="#EA7661"/>
<path d="M448.063 122.869C447.442 122.701 447.447 122.435 448.072 122.076C448.072 122.275 448.068 122.674 448.063 122.869Z" fill="#EA7661"/>
<path d="M496.313 187.32C496.331 185.897 496.765 184.541 497.342 183.256C498.442 184.01 499.4 184.945 500.252 185.973C499.476 186.575 498.58 186.965 497.626 187.165L497.59 186.287C498.021 186.23 498.886 186.123 499.316 186.066C498.801 185.299 498.127 184.657 497.346 184.169C497.134 185.202 496.921 186.301 497.528 187.253C497.227 187.271 496.619 187.302 496.313 187.32Z" fill="#EA7661"/>
<path d="M144.612 194.561C145.397 194.57 146.182 194.61 146.971 194.618L147.215 193.971C149.207 194.849 151.363 195.833 152.432 197.853C153.829 201.492 154.53 205.533 153.705 209.384C153.155 209.894 152.609 210.412 152.072 210.935C152.117 212.074 152.086 213.222 151.868 214.347C148.692 215.482 145.313 215.016 142.101 214.329C142.123 214.524 142.168 214.91 142.19 215.105C141.711 213.736 141.285 212.349 140.988 210.931C142.367 210.997 143.747 211.046 145.126 211.09C145.117 210.399 145.104 209.707 145.095 209.021C143.875 209.012 142.656 209.025 141.44 209.1C141.547 207.483 141.613 205.865 141.485 204.248C140.815 204.917 140.163 205.604 139.546 206.322C137.932 206.876 136.215 206.876 134.53 206.88C134.681 206.388 134.845 205.905 135.018 205.422C137.311 201.54 140.655 198.412 143.219 194.72C143.68 194.654 144.142 194.592 144.612 194.561Z" fill="#EA7661"/>
<path d="M105.85 209.716C105.952 208.356 106.107 206.938 106.945 205.803C108.13 206.49 109.154 207.416 109.89 208.582C108.635 209.238 107.265 209.659 105.85 209.716ZM106.63 208.932C107.42 208.781 108.205 208.626 108.99 208.467C108.489 207.873 108.041 207.195 107.344 206.814C106.471 206.942 106.919 208.303 106.63 208.932Z" fill="#EA7661"/>
<path d="M117.489 265.885C121.21 265.592 124.936 265.752 128.662 265.885C129.322 265.898 129.988 265.902 130.653 265.902C130.658 274.287 130.573 282.671 130.706 291.051C132.742 290.195 134.973 290.302 137.133 290.333C137.182 282.188 137.173 274.038 137.142 265.893C138.402 265.929 139.657 266.018 140.912 266.137C140.908 274.189 140.873 282.245 140.93 290.302C143.068 290.364 145.206 290.333 147.344 290.297C147.411 282.135 147.331 273.972 147.379 265.809C147.978 265.831 148.577 265.858 149.18 265.893C153.514 266.15 157.861 265.823 162.199 266.035C161.888 267.812 161.866 269.616 161.941 271.415L161.937 271.628C160.371 272.869 158.162 273.028 156.792 274.548C155.554 275.784 155.084 277.522 154.543 279.13C154.219 279.046 153.563 278.878 153.239 278.793L154.428 279.236C152.587 280.832 150.773 282.471 149.185 284.324C151.012 282.596 152.791 280.814 154.654 279.13C154.738 281.55 155.714 284.102 157.834 285.445C160.167 287.164 163.543 287.129 165.898 285.463C167.938 284.2 168.834 281.816 169.118 279.533C186.816 279.556 204.509 279.529 222.202 279.556C222.269 283.123 222.211 286.69 222.242 290.257C223.577 290.315 225.21 290.231 226.052 291.498C226.279 292.611 225.338 293.909 224.141 293.798C213.806 294.25 203.458 293.967 193.114 294.046C173.46 294.046 153.807 294.037 134.153 294.051C129.824 293.701 125.508 297.56 125.783 301.974C125.774 303.631 125.694 305.457 126.83 306.818C128.435 308.954 130.839 310.934 133.683 310.708C162.376 310.735 191.074 310.713 219.767 310.717C221.439 310.757 223.143 310.549 224.793 310.895C226.141 311.355 225.968 313.053 226.097 314.187C230.936 314.254 235.775 314.227 240.61 314.156C241.492 314.081 242.3 314.466 243.058 314.878C243.377 320.506 243.479 326.17 242.925 331.789C241.714 331.984 240.499 332.152 239.275 332.152C234.005 332.13 228.74 332.13 223.471 332.148C219.364 332.117 215.256 332.134 211.149 332.148C211.233 326.258 211.162 320.369 211.193 314.48C210.386 314.48 209.588 314.48 208.785 314.488C208.838 320.369 208.78 326.254 208.82 332.139C207.543 332.157 206.27 332.21 204.997 332.174C205.112 326.267 205.072 320.36 205.028 314.453C204.336 314.453 203.644 314.457 202.957 314.462C202.965 320.351 202.748 326.236 202.637 332.121C195.669 332.121 188.701 332.112 181.733 332.13C172.808 332.121 163.888 332.099 154.964 332.139C154.192 332.143 153.421 332.134 152.649 332.13C151.407 332.112 150.169 332.112 148.932 332.13C148.16 332.134 147.397 332.139 146.63 332.139C143.042 332.09 139.458 332.157 135.869 332.099C135.279 332.143 134.752 331.913 134.321 331.536C134.348 330.925 134.383 330.322 134.423 329.724C147.069 329.755 159.715 329.741 172.356 329.719C175.731 329.843 178.632 326.569 178.375 323.254C178.632 320.622 176.854 318.215 174.591 317.068C173.141 316.567 171.558 316.802 170.049 316.722C158.18 316.757 146.311 316.669 134.445 316.762C134.397 315.942 134.57 315.087 134.281 314.307C131.132 314.311 127.885 313.252 125.703 310.908C123.299 308.471 121.534 304.956 122.257 301.473C122.172 298.664 123.468 295.983 125.464 294.055C125.508 293.873 125.588 293.506 125.632 293.324C122.864 293.297 120.097 293.346 117.329 293.284C116.632 292.46 115.759 291.6 115.847 290.426C115.807 283.495 115.843 276.56 115.821 269.629C115.741 268.171 116.322 266.771 117.489 265.885ZM188.067 320.063C186.714 321.428 187.113 323.427 187.197 325.155C187.574 325.656 187.951 326.161 188.324 326.675C188.843 327.069 189.362 327.473 189.881 327.88C191.761 328.066 193.979 328.354 195.429 326.834C196.853 325.642 196.738 323.635 196.618 321.964C196.552 319.979 194.618 318.344 192.666 318.424C190.99 318.26 189.047 318.517 188.067 320.063Z" fill="#EA7661"/>
<path d="M147.903 288.659L147.637 271.983H154.658V286.405C154.658 287.847 150.036 287.457 147.903 288.659Z" fill="#EA7661"/>
<path d="M182.416 297.472C184.527 297.379 186.647 297.41 188.763 297.401C188.687 299.931 188.772 302.457 188.781 304.988C187.8 304.416 186.873 303.711 185.782 303.37C184.58 303.64 183.56 304.416 182.442 304.912C182.433 302.431 182.54 299.953 182.416 297.472Z" fill="#EA7661"/>
<path d="M159.391 320.378C161.138 320.334 162.886 320.316 164.634 320.258C164.86 322.226 164.842 324.211 164.603 326.174C163.822 325.452 163.019 324.761 162.168 324.131C161.32 324.818 160.424 325.456 159.409 325.864C159.382 324.034 159.386 322.204 159.391 320.378Z" fill="#EA7661"/>
<path d="M340.608 335.059C348.996 334.971 357.384 334.993 365.771 335.041C367.399 335.13 369.031 335.108 370.668 335.081C370.859 336.105 371.072 337.124 371.276 338.152C373.946 338.928 376.74 338.52 379.477 338.591C381.127 338.498 382.839 339.761 382.99 341.454C383.163 343.182 383.229 344.955 382.941 346.678C382.724 347.804 381.664 348.442 380.905 349.191C364.822 349.093 348.739 349.218 332.656 349.187C332.766 348.424 333.055 347.649 332.926 346.882C332.447 346.155 331.831 345.544 331.236 344.924C332.172 343.926 332.593 342.398 331.768 341.197C331.037 339.593 329.258 339.105 327.737 338.573C341.655 338.427 355.578 338.706 369.493 338.427C368.911 337.319 367.594 337.581 366.57 337.519C359.774 337.563 352.979 337.519 346.184 337.541C344.512 337.532 342.831 337.855 341.176 337.563C340.764 336.792 340.755 335.892 340.608 335.059Z" fill="#EA7661"/>
<path d="M268.877 338.981C270.066 338.706 271.281 338.52 272.51 338.551C279.026 338.6 285.541 338.556 292.057 338.573C294.275 338.609 296.546 338.312 298.702 339.008C297.566 339.814 296.12 340.762 296.138 342.336C295.947 343.497 296.914 344.316 297.526 345.167C296.568 345.641 295.459 345.974 294.772 346.838C294.421 347.547 294.421 348.367 294.275 349.138C287.919 349.023 281.558 349.129 275.198 349.089C272.94 349.027 270.589 349.399 268.434 348.544C264.677 347.13 261.04 345.384 257.203 344.188C257.23 344.051 257.287 343.776 257.314 343.634C261.199 342.158 265.103 340.718 268.877 338.981Z" fill="#EA7661"/>
<path d="M405.5 267.807H416L418 263.307H404L405.5 267.807Z" fill="#5F719C"/>
<path d="M412.5 274.307L416.5 270.307L424 272.307C424.167 274.473 424.6 278.907 425 279.307C425.4 279.707 416.833 276.14 412.5 274.307Z" fill="#5F719C"/>
<path d="M307.37 279.443L306.053 263.207H340.72C340.72 266.717 342.562 279.38 341.159 279.443C331.505 279.882 314.391 279.004 307.37 279.443Z" fill="#5F719C"/>
<path d="M244.617 279.443L243.301 263.207H277.968V277.249C277.968 278.653 255.149 278.273 244.617 279.443Z" fill="#5F719C"/>
<path d="M198.979 277.249C198.979 278.653 176.16 278.273 165.629 279.443L162.118 277.249V267.595L170.456 262.768C170.456 266.278 198.979 275.845 198.979 277.249Z" fill="#5F719C"/>
</svg>
